<svg viewBox="0 0 512 512" xml:space="preserve" xmlns="http://www.w3.org/2000/svg" enable-background="new 0 0 512 512"><path d="M351.217 156.201c-1.332-1.331-3.17-2.154-5.176-2.154a7.315 7.315 0 0 0-7.307 7.328c0 2.007.823 3.844 2.133 5.152 1.332 1.332 3.168 2.154 5.174 2.154a7.315 7.315 0 0 0 7.307-7.306 7.313 7.313 0 0 0-2.131-5.174m-182.535-.148a7.313 7.313 0 0 0-5.173-2.154 7.279 7.279 0 0 0-5.175 2.154 7.211 7.211 0 0 0-2.134 5.152c0 2.028.804 3.844 2.134 5.176a7.26 7.26 0 0 0 5.175 2.133 7.163 7.163 0 0 0 4.836-1.838h.021l.084-.063.021-.042h.021l.063-.063v-.021l.042-.043h.021l.021-.021.042-.042.042-.043v-.021l.042-.021a7.283 7.283 0 0 0 2.049-5.09 7.283 7.283 0 0 0-2.132-5.153zm96.937 258.119c-.486 6.188-1.309 16.326.317 18.691 1.288 1.879 4.773 2.766 8.68 3.759l3.526.928c9.081 2.62 18.29 7.879 27.245 13.01 9.313 5.322 18.396 10.519 26.335 12.103.718.126.823.526.887.4.232-.465.232-1.858.212-3.695-.021-3.464.591-10.18 1.288-17.804 1.352-14.826 3.02-33.326 1.225-35.818-.633-.886-1.669-1.585-3.104-2.155-1.606-.654-3.675-1.117-6.125-1.414h-.127v-.021l-.294-.021-.297-.042-.316-.021-.338-.042-.316-.021-.339-.042-.358-.021-.359-.042-.361-.023-.379-.021-.381-.044-.381-.021-.4-.021-.401-.021-.423-.021-.422-.021v-.021l-.422-.021-.424-.021-.443-.021-.442-.021-.444-.021h-.021l-.444-.021h-.465l-.463-.021h-.021l-.465-.021-.486-.021H315.187l-.485-.021-.484-.021-.507-.021h-.508l-.507-.021h-.507l-.508-.021H310.626l-.527-.021h-1.605l-.529-.021h-4.985l-.549.021h-1.121l-.549.021H299.621l-.549.021H298.502l-.55.021h-.021l-.55.021H296.811l-.549.021h-.021l-.526.021h-.022l-.548.021h-.464l-.444.021-.443.021h-.463l-.443.021h-.021l-.443.021-.444.021-.442.021-.443.021-.444.021-.444.021-.441.021-.423.021h-.021l-.423.021-.423.021h-.021l-.421.021-.423.022h-.021l-.402.021h-.021l-.402.042h-.021l-.399.021-.423.021-.423.021-.4.042-.401.021h-.021l-.402.042-.379.021h-.021l-.381.042h-.021l-.381.021-.399.042-.381.021-.381.042-.379.021v.021l-.381.021-.36.042-.379.021v.021l-.359.021-.358.044-.359.042-.339.042-.337.042h-.021l-.339.042-.337.042-.317.043-.316.042h-.021l-.318.042-.315.042-.297.042-.315.042-.297.042-.295.065-.275.042-.273.042-.275.042v.021l-.273.042-.276.042-.252.063-.255.042-.231.063-.231.042-.233.063-.231.042v.021l-.213.044-.21.063-.211.063c-2.915.845-4.437 2.006-5.196 3.252-.76 1.204-.907 2.704-.993 4.013l-.245 3.13zm53.241 6.631a2.976 2.976 0 0 0-1.667-1.583 3.004 3.004 0 0 0-2.344.042h-.043c-.74.358-1.311.971-1.584 1.669a3.156 3.156 0 0 0 .042 2.365l.021.042a3.027 3.027 0 0 0 1.669 1.563c.718.296 1.562.296 2.345-.021l.042-.021c.76-.337 1.288-.949 1.583-1.668.275-.739.297-1.583-.043-2.345l-.021-.043zm4.668-2.259.19.464c.824 2.007.76 4.182.021 6.061a8.138 8.138 0 0 1-4.16 4.437l-.465.21a8.218 8.218 0 0 1-6.062.021 8.191 8.191 0 0 1-4.415-4.14l-.231-.484a8.228 8.228 0 0 1 0-6.063 8.232 8.232 0 0 1 4.14-4.435l.486-.211a8.226 8.226 0 0 1 6.061-.021 8.264 8.264 0 0 1 4.435 4.161zm21.817-126.399c2.618 3.676 2.302 8.533.253 13.855l-.042.126c-4.857 12.439-19.957 27.476-25.786 33.306l-1.33 1.351a2.64 2.64 0 0 1-3.676 0 2.6 2.6 0 0 1 0-3.675l1.331-1.351c5.638-5.598 20.212-20.127 24.646-31.51l.043-.105c1.879-4.901 1.646-9.167-2.811-11.385l-.041-.021-.021-.021h-.043l-.041-.021-.043-.021-.041-.021-.021-.021-.043-.021h-.041l-.043-.021-.041-.021-.043-.021-.042-.021h-.021l-.045-.021-.041-.021-.043-.021-.084-.042h-.042l-.085-.042-.041-.021-.381-.126c-8.574-2.894-21.119 6.778-32.418 19.303-11.68 12.967-21.796 28.848-25.174 37.592l-.423 1.141c-2.154 6.378-3.358 15.648-3.992 25.005-.57 8.152-.738 16.304-.76 22.787 12.884-2.281 36.325-2.534 49.524-1.33h.085l.255.021.336.021c4.521-26.251 14.573-35.374 25.218-45.006 6.947-6.293 14.169-12.818 20.041-25.047 4.626-9.588 6.886-36.451 5.851-60.211-.844-19.555-3.738-36.746-9.123-39.346l-.528-.23c-2.683-1.078-5.027-.36-6.991 1.203-2.323 1.858-4.224 4.814-5.596 7.666l-.973 2.175c-2.809 6.948-5.025 17.086-6.229 27.328-1.184 9.841-1.437 19.702-.444 26.841zM246.38 414.172c.486 6.188 1.309 16.326-.317 18.691-1.288 1.879-4.773 2.766-8.679 3.759l-3.527.928c-9.083 2.62-18.29 7.879-27.244 13.01-9.314 5.322-18.395 10.519-26.335 12.103-.718.126-.825.526-.888.4-.231-.465-.231-1.858-.21-3.695.021-3.464-.591-10.18-1.288-17.804-1.351-14.826-3.02-33.326-1.225-35.818.633-.886 1.69-1.585 3.104-2.155 1.606-.654 3.675-1.117 6.124-1.414h.126v-.021l.296-.021.295-.042h.021l.297-.021.338-.042.316-.021.339-.042h.021l.337-.021.36-.042.358-.021.381-.021.38-.044.4-.021.381-.021.402-.021h.021l.4-.021.423-.021v-.021l.423-.021.423-.021h.021l.421-.021.444-.021.465-.021.444-.021h.463l.465-.021h.021l.465-.021.486-.021h.486l.484-.021.486-.021.507-.021h.507l.507-.021h.528l.505-.021H201.373l.528-.021h1.605l.549-.021H209.015l.549.021H210.683l.549.021H212.372l.549.021H213.491l.548.021h.021l.549.021H215.179l.549.021h.021l.549.021.549.021h.465l.444.021h.021l.442.021h.465l.423.021h.021l.444.021.442.021.444.021.444.021h.021l.423.021h.021l.421.021.444.021.444.021.423.021h.021l.421.021.423.021.423.022h.021l.402.021h.021l.4.042h.021l.402.021h.021l.402.021.421.021.402.042.402.021h.021l.4.042.402.021.381.042h.021l.379.021.402.042.381.021.379.042.381.021v.021l.381.021.358.042h.021l.36.021v.021l.358.021.36.044.359.042.337.042.36.042.337.042.339.042.317.043.337.042.318.042.316.042.296.042.316.042.296.042.295.065.275.042.295.042.275.042v.021l.253.042.273.042.254.063.253.042.233.063.252.042.21.063.233.042v.021l.211.044.212.063.211.063c2.915.845 4.434 2.006 5.196 3.252.76 1.204.907 2.704.991 4.013l.243 3.128zm-53.242 6.631c.339-.76.951-1.31 1.669-1.583a3.003 3.003 0 0 1 2.344.042h.042c.76.358 1.309.971 1.585 1.669a3.082 3.082 0 0 1-.042 2.365l-.021.042a3.026 3.026 0 0 1-1.668 1.563c-.718.296-1.563.296-2.345-.021l-.042-.021a3.128 3.128 0 0 1-1.584-1.668c-.274-.739-.295-1.583.042-2.345l.02-.043zm-4.666-2.259-.191.464a8.236 8.236 0 0 0-.021 6.061 8.135 8.135 0 0 0 4.16 4.437l.465.21a8.216 8.216 0 0 0 6.061.021 8.308 8.308 0 0 0 4.436-4.14l.211-.484a8.238 8.238 0 0 0 0-6.063c-.718-1.88-2.176-3.505-4.14-4.435l-.486-.211a8.226 8.226 0 0 0-6.061-.021 8.266 8.266 0 0 0-4.434 4.161zm-21.817-126.399c-2.618 3.676-2.302 8.533-.254 13.855l.043.126c4.857 12.439 19.957 27.476 25.786 33.306l1.33 1.351a2.64 2.64 0 0 0 3.675 0 2.6 2.6 0 0 0 0-3.675l-1.33-1.351c-5.638-5.598-20.211-20.127-24.646-31.51l-.042-.105c-1.881-4.901-1.647-9.167 2.808-11.385l.042-.021.021-.021h.042l.044-.021.042-.021.042-.021.042-.021.021-.021h.042l.042-.021.042-.021.042-.021.042-.021h.042l.042-.021.021-.021.042-.021.086-.042h.042l.084-.042.042-.021.379-.126c8.576-2.894 21.12 6.778 32.419 19.303 11.699 12.967 21.794 28.848 25.174 37.592l.423 1.141c2.153 6.378 3.357 15.648 3.992 25.005.568 8.152.739 16.304.76 22.787-12.883-2.281-36.325-2.534-49.524-1.33h-.084l-.254.021-.316.021c-4.542-26.251-14.594-35.374-25.239-45.006-6.947-6.293-14.15-12.818-20.041-25.047-4.625-9.588-6.886-36.451-5.85-60.211.844-19.555 3.758-36.746 9.123-39.346l.549-.23c2.66-1.078 5.004-.36 6.97 1.203 2.324 1.858 4.224 4.814 5.596 7.666l.972 2.175c2.829 6.948 5.025 17.086 6.25 27.328 1.163 9.841 1.417 19.702.424 26.841zm141.329-43.315c-13.263-1.965-31.657-3.189-51.974-3.189-20.338 0-38.712 1.225-51.995 3.189-12.019 1.773-19.473 3.653-19.473 5.193 0 1.543 7.454 3.422 19.473 5.196 13.262 1.964 31.657 3.19 51.995 3.19 20.316 0 38.711-1.227 51.974-3.19 12.017-1.774 19.473-3.653 19.473-5.196 0-1.54-7.456-3.419-19.473-5.193zm-52.988-111.32.846.064 1.076-.085h.042l.022-.021.886-.191a7.212 7.212 0 0 0 3.146-1.857c1.332-1.311 2.134-3.147 2.134-5.175a7.205 7.205 0 0 0-2.134-5.153 7.275 7.275 0 0 0-5.172-2.154c-1.965 0-3.74.782-5.049 2.028l-.105.126a7.234 7.234 0 0 0-2.155 5.153c0 2.027.825 3.864 2.134 5.175a7.435 7.435 0 0 0 3.443 1.942l.084.021.084.021.359.064.084.021.275.021zm55.059-1.732a2.597 2.597 0 0 1 2.598 2.599 2.596 2.596 0 0 1-2.598 2.597h-8.701a2.596 2.596 0 0 1-2.598-2.597 2.597 2.597 0 0 1 2.598-2.599h8.701zm-108.3 5.196c-1.416 0-2.576-1.161-2.576-2.597 0-1.437 1.16-2.599 2.576-2.599h8.7a2.597 2.597 0 0 1 2.599 2.599 2.596 2.596 0 0 1-2.599 2.597h-8.7zm-48.047 0a2.595 2.595 0 0 1-2.597-2.597 2.597 2.597 0 0 1 2.597-2.599h16.411a2.597 2.597 0 0 1 2.597 2.599 2.595 2.595 0 0 1-2.597 2.597h-16.411zm99.599-112.375a2.595 2.595 0 0 1 2.599-2.597 2.594 2.594 0 0 1 2.597 2.597v25.28a2.596 2.596 0 0 1-2.597 2.598 2.597 2.597 0 0 1-2.599-2.598v-25.28zm102.554 52.608a2.61 2.61 0 0 1 3.527 1.055c.677 1.247.191 2.831-1.055 3.506l-23.295 12.631c-1.269.696-2.83.21-3.527-1.035a2.61 2.61 0 0 1 1.055-3.527l23.295-12.63zm-202.384 4.561a2.597 2.597 0 0 1-1.035-3.506 2.587 2.587 0 0 1 3.506-1.055l23.294 12.629a2.611 2.611 0 0 1 1.056 3.527 2.6 2.6 0 0 1-3.527 1.035l-23.294-12.63zm151.319-31.911a2.62 2.62 0 0 1 3.569-.846 2.583 2.583 0 0 1 .844 3.57l-8.194 13.368a2.62 2.62 0 0 1-3.569.845 2.606 2.606 0 0 1-.865-3.569l8.215-13.368zM202.6 56.582a2.583 2.583 0 0 1 .846-3.57c1.225-.738 2.829-.358 3.569.846l8.214 13.368a2.606 2.606 0 0 1-.865 3.569c-1.204.738-2.81.359-3.548-.845L202.6 56.582zm50.707 19.895a2.596 2.596 0 0 1 2.599-2.599 2.595 2.595 0 0 1 2.597 2.599v14.255c0 1.415-1.161 2.576-2.597 2.576-1.437 0-2.599-1.161-2.599-2.576V76.477zm54.911 28.7a2.59 2.59 0 0 1 3.546.95c.72 1.226.297 2.83-.949 3.527l-12.334 7.138a2.592 2.592 0 0 1-3.548-.95c-.718-1.225-.295-2.83.951-3.527l12.334-7.138zm-107.222 4.477c-1.227-.697-1.648-2.302-.93-3.527.697-1.246 2.302-1.668 3.527-.95l12.355 7.138c1.225.697 1.646 2.303.928 3.527a2.572 2.572 0 0 1-3.527.95l-12.353-7.138zm79.744-19.472a2.61 2.61 0 0 1 3.526-.949 2.573 2.573 0 0 1 .951 3.527l-4.35 7.539c-.698 1.246-2.281 1.668-3.527.949-1.225-.696-1.647-2.281-.951-3.526l4.351-7.54zm-54.148 2.578a2.608 2.608 0 0 1 .949-3.527c1.246-.697 2.831-.275 3.527.949l4.35 7.54c.72 1.245.297 2.83-.949 3.526a2.572 2.572 0 0 1-3.527-.949l-4.35-7.539zM358.1 135.778a2.597 2.597 0 1 1 0 5.196h-16.408a2.595 2.595 0 0 1-2.599-2.597 2.596 2.596 0 0 1 2.599-2.599H358.1zm-56.81 150.855a2.597 2.597 0 0 1 3.632.317c.907 1.099.76 2.745-.338 3.653-.105.084-37.274 30.939-41.478 45.617-4.329 15.143-4.794 53.854-4.794 53.98v.252h-.021v.128l-.021.063v.063l-.021.063-.021.063-.021.063v.063h-.021v.063h-.023v.063l-.021.064h-.021l-.021.043-.021.063-.021.063-.021.042h-.021l-.021.063-.021.063-.042.042-.021.063-.043.042-.021.063h-.021l-.021.044-.042.042-.042.063-.043.042-.042.042-.042.042-.044.042-.042.063-.042.042-.042.021h-.021l-.042.041-.042.043-.042.042h-.021l-.042.044-.042.021-.063.041-.042.043-.063.021-.044.042-.063.021-.063.021-.042.041-.063.021-.063.021-.063.021-.042.021h-.021l-.042.021-.063.021-.065.021h-.063l-.063.021-.063.021h-.126l-.063.021h-.527l-.063-.021H255.255l-.042-.021h-.021l-.065-.021h-.063l-.042-.021h-.021l-.042-.021-.063-.021-.063-.021-.063-.021-.063-.021-.042-.021-.063-.041-.065-.021-.042-.021-.063-.042-.063-.021-.042-.043-.042-.041h-.021l-.042-.021-.042-.044-.063-.042-.042-.043-.042-.041-.044-.021h-.021l-.042-.042-.042-.063-.042-.042-.042-.042-.042-.042-.042-.042-.021-.063h-.021l-.021-.042-.042-.044-.042-.063-.021-.042-.042-.063-.021-.042h-.021l-.021-.063-.021-.063-.044-.042-.021-.063-.021-.063-.021-.043-.021-.064-.021-.063-.021-.063-.021-.063-.021-.063-.021-.063v-.063l-.021-.063v-.063l-.021-.063v-.128h-.021v-.189c0-.126-.465-38.838-4.794-53.98-4.181-14.678-41.372-45.533-41.479-45.617a2.604 2.604 0 0 1-.337-3.653c.907-1.077 2.555-1.225 3.632-.317.126.084 38.543 31.954 43.167 48.173.993 3.442 1.774 7.962 2.407 12.968.634-5.006 1.438-9.525 2.407-12.968 4.618-16.219 43.056-48.089 43.161-48.173zm-58.691 199.366a2.596 2.596 0 0 1-2.597-2.6c0-1.414 1.162-2.575 2.597-2.575h101.33c1.438 0 2.599 1.161 2.599 2.575 0 1.438-1.161 2.6-2.599 2.6h-101.33zm111.7 0a2.596 2.596 0 0 1-2.598-2.6c0-1.414 1.161-2.575 2.598-2.575h12.672c1.414 0 2.597 1.161 2.597 2.575a2.61 2.61 0 0 1-2.597 2.6h-12.672zm-203.209-.255a2.597 2.597 0 1 1 0-5.195h48.003a2.597 2.597 0 1 1 0 5.195H151.09zm27.117-8.637a2.597 2.597 0 0 1-2.597-2.599 2.596 2.596 0 0 1 2.597-2.598h125.068a2.596 2.596 0 0 1 2.599 2.598 2.596 2.596 0 0 1-2.599 2.599H178.207zm79.323-334.464h-.063l-.021.021h-.147l-.021.021H257.11l-.021.021h-.211l-.042.021h-.273l-.021.021H255.848a14.7 14.7 0 0 1-1.374-.063l-32.819 53.368-49.017-26.293-.296.295c-.274.296-.591.57-.907.846l12.334 78.035.189-.105h.021l.189-.105.149-.064.042-.021.21-.105.105-.042c17.044-8.046 66.271-8.046 71.341-8.046 6.651 0 52.903-.021 70.792 7.793l.168.084.043.021.21.084.106.063.105.042.211.105.042.021.147.064.191.105h.021l.189.105 12.079-76.452a11.434 11.434 0 0 1-2.64-1.837l-47.306 25.406-32.843-53.409z" fill-rule="evenodd" clip-rule="evenodd" fill="#ffffff" class="fill-000000"></path></svg>