<svg fill="none" viewBox="0 0 24 24" xmlns="http://www.w3.org/2000/svg"><path clip-rule="evenodd" d="M15 5.5a6.5 6.5 0 1 0 0 13 6.5 6.5 0 0 0 0-13ZM7.5 12a7.5 7.5 0 1 1 15 0 7.5 7.5 0 0 1-15 0Z" fill="#54309c" fill-rule="evenodd" class="fill-000000"></path><path clip-rule="evenodd" d="M6 4.5h9v1H6v-1ZM5.5 8h3v1h-3V8ZM2 8h1.5v1H2V8ZM4 12h4v1H4v-1ZM12.584 8.723A.5.5 0 0 1 13 8.5h4a.5.5 0 0 1 .416.223l2 3a.5.5 0 0 1 0 .554l-2 3A.5.5 0 0 1 17 15.5h-4a.5.5 0 0 1-.416-.223l-2-3a.5.5 0 0 1 0-.554l2-3Zm.684.777L11.6 12l1.667 2.5h3.464L18.4 12l-1.667-2.5h-3.464Z" fill="#54309c" fill-rule="evenodd" class="fill-000000"></path></svg>