<svg data-name="Livello 1" viewBox="0 0 128 128" xmlns="http://www.w3.org/2000/svg"><path d="M125.48 56.91a8.88 8.88 0 0 0-5-15L88.33 37a2.85 2.85 0 0 1-2.15-1.62L72 5.11a8.84 8.84 0 0 0-16 0L41.82 35.4a2.85 2.85 0 0 1-2.15 1.6L7.52 41.95a8.88 8.88 0 0 0-5 15l23.63 24.3a2.9 2.9 0 0 1 .78 2.47l-5.53 34a8.85 8.85 0 0 0 13 9.19l28.21-15.65a2.81 2.81 0 0 1 2.75 0l28.21 15.65a8.85 8.85 0 0 0 13-9.19l-5.53-34a2.89 2.89 0 0 1 .78-2.47ZM95.16 84.65l5.53 34a2.82 2.82 0 0 1-1.18 2.82 2.77 2.77 0 0 1-3 .16L68.29 106a8.78 8.78 0 0 0-8.57 0l-28.21 15.63a2.78 2.78 0 0 1-3-.16 2.82 2.82 0 0 1-1.18-2.82l5.53-34A8.92 8.92 0 0 0 30.45 77L6.82 52.73a2.84 2.84 0 0 1-.66-2.93 2.79 2.79 0 0 1 2.27-1.92l32.15-4.93a8.84 8.84 0 0 0 6.67-5l14.17-30.3a2.84 2.84 0 0 1 5.16 0l14.17 30.3a8.84 8.84 0 0 0 6.68 5l32.15 4.93a2.79 2.79 0 0 1 2.27 1.92 2.84 2.84 0 0 1-.66 2.93L97.55 77a8.92 8.92 0 0 0-2.39 7.65Z" fill="#54309c" class="fill-000000"></path></svg>