<svg id="SvgjsSvg1001" width="288" height="288" xmlns="http://www.w3.org/2000/svg" version="1.1" xmlns:xlink="http://www.w3.org/1999/xlink" xmlns:svgjs="http://svgjs.com/svgjs"><defs id="SvgjsDefs1002"></defs><g id="SvgjsG1008"><svg xmlns="http://www.w3.org/2000/svg" viewBox="0 0 24 24" width="288" height="288"><path fill="none" d="M0 0h24v24H0z"></path><g fill="#d8d8d8" class="color757575 svgShape"><path d="M12 2C6.486 2 2 6.486 2 12c0 5.515 4.486 10 10 10s10-4.485 10-10c0-5.514-4.486-10-10-10zm0 18c-4.411 0-8-3.589-8-8s3.589-8 8-8 8 3.589 8 8-3.589 8-8 8z"></path><path d="M14.293 8.293 12 10.586 9.707 8.293 8.293 9.707 10.586 12l-2.293 2.293 1.414 1.414L12 13.414l2.293 2.293 1.414-1.414L13.414 12l2.293-2.293z"></path></g></svg></g></svg>