<svg version="1.0" viewBox="0 0 35313 32819" xml:space="preserve" xmlns="http://www.w3.org/2000/svg" shape-rendering="geometricPrecision" text-rendering="geometricPrecision" image-rendering="optimizeQuality" fill-rule="evenodd" clip-rule="evenodd"><path d="M1104 12815v7189c0 302 125 579 325 778v3c197 198 474 322 778 322h1104v-9395H2207c-302 0-579 125-778 325-199 199-325 476-325 778zm27036-3578c1980 0 3775 804 5073 2101 1297 1297 2100 3092 2100 5072 0 1979-804 3773-2100 5070l-3 3c-1297 1297-3091 2100-5070 2100v-1104c1677 0 3195-679 4293-1776 1097-1098 1776-2616 1776-4293 0-1676-680-3194-1777-4291-1098-1098-2616-1778-4292-1778V9237zm0 2207c1369 0 2609 556 3509 1455l1 1 1 1c899 899 1455 2141 1455 3509 0 1369-556 2609-1455 3509l-1 1-1 1c-899 899-2140 1455-3509 1455v-1104c1068 0 2035-432 2731-1129l3-3c697-696 1129-1662 1129-2731 0-1067-432-2035-1129-2731l-3-3c-696-697-1662-1129-2731-1129v-1104zm0 2207c759 0 1450 310 1949 809l1-1c499 499 808 1189 808 1950 0 759-310 1449-808 1948l-3 3c-499 499-1189 808-1948 808v-1104c458 0 873-184 1170-482l3-3c298-297 482-712 482-1170 0-456-186-871-485-1170v-3c-297-298-712-482-1170-482v-1104zm-16553 8530 14897 8717V1920l-14897 8733v11528zm0-12802L26757 486l830-487v32819l-830-486-15170-8878v1232H3310v-2476H2206c-604 0-1157-248-1558-649l-1 1c-399-399-648-951-648-1559v-7189c0-607 249-1160 648-1559s951-648 1559-648h1104V8132h8277v1247zm-1104-143H4414v14346h6069V9237z" fill="#475569" fill-rule="nonzero" class="fill-27afb7"></path></svg>