<svg width="63" height="62" viewBox="0 0 63 62" fill="none" xmlns="http://www.w3.org/2000/svg">
<path d="M7.91605 44.0483C8.56204 43.5454 9.49515 43.6634 9.99759 44.3101C10.5 44.9567 10.3821 45.8907 9.73611 46.3937L3.0198 51.6129L2.96854 58.4847L11.0589 58.0331L15.5347 50.915C15.9705 50.2222 16.8831 50.0169 17.5752 50.4531C18.2674 50.8893 18.4724 51.8028 18.0366 52.4957L13.1814 60.2194C12.9405 60.635 12.4995 60.9224 11.9817 60.9532L1.55862 61.5332C1.52786 61.5332 1.50223 61.5332 1.47147 61.5332C0.65628 61.528 -0.00509734 60.866 2.96078e-05 60.05L0.06668 50.992C0.0307913 50.5147 0.230742 50.0272 0.635772 49.709L7.91605 44.0483ZM20.6514 27.6156C24.0301 17.5106 28.5777 10.3515 34.9812 5.83528C41.6309 1.15487 50.1724 -0.620809 61.3645 0.190051C62.1387 0.246503 62.7283 0.882874 62.7437 1.64241C63.8255 13.7745 61.4773 22.3758 56.4632 28.8935C51.6336 35.1597 44.3994 39.3987 35.4119 42.9552V54.7948C35.4119 55.3747 35.0786 55.8777 34.5916 56.124L25.4451 61.7795C24.753 62.2106 23.8404 61.995 23.4097 61.2971C23.2969 61.1123 23.2251 60.9122 23.1995 60.712C21.1743 45.2184 19.021 44.4743 6.36771 40.0916C4.86038 39.5681 3.22488 39.0036 2.12259 38.6135C1.35355 38.3415 0.948516 37.4947 1.22024 36.7198C1.27664 36.5556 1.3638 36.4068 1.46634 36.2785L7.49564 27.672C7.79813 27.241 8.28519 27.0203 8.77737 27.0408L20.6514 27.6156ZM43.4151 13.1997C45.1377 13.1997 46.6963 13.8977 47.8242 15.0267C48.9522 16.1558 49.6494 17.7159 49.6494 19.4403C49.6494 21.1646 48.9522 22.7248 47.8242 23.8538C46.6963 24.9829 45.1377 25.6808 43.4151 25.6808C41.6924 25.6808 40.1338 24.9829 39.0059 23.8538C37.878 22.7248 37.1807 21.1646 37.1807 19.4403C37.1807 17.7159 37.878 16.1558 39.0059 15.0267C40.1338 13.8977 41.6924 13.1997 43.4151 13.1997ZM46.3887 16.4637C45.6299 15.7042 44.5789 15.232 43.4151 15.232C42.2564 15.232 41.2054 15.7042 40.4414 16.4637C39.6826 17.2232 39.211 18.2753 39.211 19.4403C39.211 20.6001 39.6826 21.6522 40.4414 22.4169C41.2002 23.1764 42.2513 23.6485 43.4151 23.6485C44.5738 23.6485 45.6248 23.1764 46.3887 22.4169C47.1475 21.6573 47.6192 20.6052 47.6192 19.4403C47.6192 18.2753 47.1475 17.2232 46.3887 16.4637ZM36.6834 8.26273C30.6285 12.5326 26.3372 19.5224 23.1328 29.5247C22.9585 30.1867 22.3433 30.664 21.6306 30.6281L9.44388 30.0328L4.94241 36.4632C5.89603 36.7968 6.62918 37.0534 7.33157 37.2946C20.8257 41.9647 23.6302 42.9347 25.8245 58.0639L32.4434 53.9737V41.9493H32.4485C32.4485 41.354 32.8125 40.7946 33.397 40.5688C42.3487 37.1201 49.5008 33.0761 54.115 27.0819C58.5191 21.3597 60.6519 13.7643 59.888 3.06912C50.0288 2.52512 42.4973 4.1725 36.6834 8.26273Z" fill="white"/>
</svg>
