<svg version="1.2" xmlns="http://www.w3.org/2000/svg" viewBox="0 0 500 437" width="500" height="437"><style>.a{fill:#d1e3ff}.b{fill:#eef9ff}.c{fill:#cadefc}.d{fill:#e3eeff}.e{fill:#f5fcff}.f{fill:#fff}.g{fill:#ebf3ff}.h{fill:#f3f8ff}.i{fill:#f0f6ff}.j{fill:#ff8b7b}.k{fill:#9fc6ff}.l{fill:#14365b}.m{fill:#ea7063}.n{fill:#0f264c}.o{fill:#0a1b35}.p{fill:#0053cc}.q{fill:#ff5652}.r{fill:#407bff}.s{opacity:.6;fill:#0053cc}.t{opacity:.3;fill:#0053cc}.u{opacity:.8;fill:#0053cc}</style><path fill-rule="evenodd" class="a" d="m0 382.4h500v0.2h-500z"/><path fill-rule="evenodd" class="a" d="m85.9 393h33.7v0.2h-33.7z"/><path fill-rule="evenodd" class="a" d="m58.6 393.1h20v0.3h-20z"/><path fill-rule="evenodd" class="a" d="m208.3 387.8l94.8-0.1v0.3h-94.8z"/><path fill-rule="evenodd" class="a" d="m137.6 400.1h30.2v0.2h-30.2z"/><path fill-rule="evenodd" class="a" d="m335 391.2h78.7v0.2h-78.7z"/><path class="a" d="m237 337.8h-193.1c-3.1 0-5.7-2.6-5.7-5.7v-271.4c0-3.2 2.6-5.7 5.7-5.7h193.1c3.2 0 5.7 2.5 5.7 5.7v271.4c0 3.1-2.5 5.7-5.7 5.7zm-193.1-282.6c-3 0-5.4 2.5-5.4 5.5v271.4c0 3 2.4 5.5 5.4 5.5h193.1c3 0 5.5-2.5 5.5-5.5v-271.4c0-3-2.5-5.5-5.5-5.5 0 0-193.1 0-193.1 0z"/><path class="a" d="m453.3 337.8h-193.1c-3.1 0-5.7-2.6-5.7-5.7v-271.4c0-3.2 2.6-5.7 5.7-5.7h193.1c3.2 0 5.7 2.5 5.7 5.7v271.4c0 3.1-2.5 5.7-5.7 5.7zm-193.1-282.6c-3 0-5.4 2.5-5.4 5.5v271.4c0 3 2.4 5.5 5.4 5.5h193.1c3 0 5.5-2.5 5.5-5.5v-271.4c0-3-2.5-5.5-5.5-5.5 0 0-193.1 0-193.1 0z"/><path fill-rule="evenodd" class="a" d="m395.7 265.8h25.5v116.6h-25.5z"/><path fill-rule="evenodd" class="b" d="m416.4 382.4h4.8v-13.8h-9.9z"/><path fill-rule="evenodd" class="a" d="m300.5 265.8h25.5v116.6h-25.5z"/><path fill-rule="evenodd" class="b" d="m321.8 265.8h99.4v108.2h-99.4z"/><path fill-rule="evenodd" class="a" d="m373.1 356.7v-35.7h44.4v35.7z"/><path fill-rule="evenodd" class="a" d="m325.5 356.7v-35.7h44.4v35.7z"/><path class="b" d="m352.1 324.8h-8.8c-3.8 0-7.4-1.5-10.1-4.3h29c-2.7 2.8-6.3 4.3-10.1 4.3z"/><path class="b" d="m400.1 324.8h-8.7c-3.9 0-7.5-1.5-10.1-4.3h28.9c-2.6 2.8-6.3 4.3-10.1 4.3z"/><path fill-rule="evenodd" class="a" d="m373.1 309.7v-35.8h44.4v35.8z"/><path fill-rule="evenodd" class="a" d="m325.5 309.7v-35.8h44.4v35.8z"/><path class="b" d="m352.1 277.8h-8.8c-3.8 0-7.4-1.6-10.1-4.4h29c-2.7 2.8-6.3 4.4-10.1 4.4z"/><path class="b" d="m400.1 277.8h-8.7c-3.9 0-7.5-1.6-10.1-4.4h28.9c-2.6 2.8-6.3 4.4-10.1 4.4z"/><path fill-rule="evenodd" class="b" d="m326.6 382.4h-4.8v-13.8h9.9z"/><path class="c" d="m346.4 247.5c0 4.5 3.1 7.6-1.4 7.6-4.4 0-14.8-3.1-14.8-7.6 0-4.4 3.6-8.1 8.1-8.1 4.5 0 8.1 3.7 8.1 8.1z"/><path class="c" d="m360.2 251.4c0 4.4 3.1 7.5-1.4 7.5-4.4 0-14.8-3.1-14.8-7.5 0-4.5 3.7-8.1 8.1-8.1 4.5 0 8.1 3.6 8.1 8.1z"/><path class="c" d="m373.4 249c0 4.4 3.1 7.5-1.3 7.5-4.5 0-14.8-3.1-14.8-7.5 0-4.5 3.6-8.1 8-8.1 4.5 0 8.1 3.6 8.1 8.1z"/><path class="d" d="m325.3 250c0 0 0.6 15.8 25.9 15.8 25.3 0 26-15.8 26-15.8z"/><path fill-rule="evenodd" class="a" d="m294 74h128.3v141.9h-128.3z"/><path class="a" d="m436 69.6h-150.3c-0.7 0-1.2 0.6-1.2 1.3 0 0.7 0.5 1.3 1.2 1.3h150.3c0.7 0 1.3-0.6 1.3-1.3 0-0.7-0.6-1.3-1.3-1.3z"/><path fill-rule="evenodd" class="d" d="m296.6 74h131.1v141.9h-131.1z"/><path fill-rule="evenodd" class="a" d="m294 215.9h128.3v10.1h-128.3z"/><path fill-rule="evenodd" class="d" d="m305.7 215.9h131.1v10.1h-131.1z"/><path fill-rule="evenodd" class="e" d="m420.1 81.6v126.7h-115.9v-126.7z"/><path fill-rule="evenodd" class="f" d="m330.5 208.3l44.7-126.7h21.1l-44.7 126.7z"/><path fill-rule="evenodd" class="f" d="m356.2 208.3l44.7-126.7h8.2l-44.7 126.7z"/><path fill-rule="evenodd" class="a" d="m420.1 81.6v126.7h-1v-126.7z"/><path fill-rule="evenodd" class="g" d="m291.2 67.3h13.1v122.3h-13.1z"/><path fill-rule="evenodd" class="a" d="m299.2 67.3h10.2v122.3h-10.2z"/><path fill-rule="evenodd" class="g" d="m304.3 67.3h13.1v122.3h-13.1z"/><path fill-rule="evenodd" class="a" d="m312.3 67.3h10.2v122.3h-10.2z"/><path fill-rule="evenodd" class="g" d="m317.4 67.3h13.1v122.3h-13.1z"/><path fill-rule="evenodd" class="g" d="m407.7 67.3h7.5v122.3h-7.5z"/><path fill-rule="evenodd" class="a" d="m412.3 67.3h5.9v122.3h-5.9z"/><path fill-rule="evenodd" class="g" d="m415.2 67.3h7.6v122.3h-7.6z"/><path fill-rule="evenodd" class="a" d="m419.8 67.3h5.9v122.3h-5.9z"/><path fill-rule="evenodd" class="g" d="m422.8 67.3h7.5v122.3h-7.5z"/><path fill-rule="evenodd" class="d" d="m96.7 105.6h13.7v37.3h-13.7z"/><path fill-rule="evenodd" class="h" d="m78 151.4l-4.3 11.9h4.3l26.6-11.9z"/><path fill-rule="evenodd" class="a" d="m73.7 151.4v11.9l26.6-11.9z"/><path fill-rule="evenodd" class="h" d="m182.2 151.4l-4.3 11.9h4.3l26.6-11.9z"/><path fill-rule="evenodd" class="a" d="m177.9 151.4v11.9l26.5-11.9z"/><path fill-rule="evenodd" class="a" d="m83.1 152h-28.9v-9h28.9z"/><path fill-rule="evenodd" class="h" d="m83.1 143h143.6v9h-143.6z"/><path fill-rule="evenodd" class="a" d="m133.1 142.9h-33.2l-4.1-45.2h33.2z"/><path fill-rule="evenodd" class="b" d="m134.8 142.9h-33.2l-4.1-45.2h33.2z"/><path fill-rule="evenodd" class="f" d="m106.1 137.9l-3.2-35.2h23.3l3.2 35.2z"/><path class="d" d="m148.3 128.2c0 0 0.6 14.7 24.1 14.7 23.6 0 24.2-14.7 24.2-14.7z"/><path class="a" d="m123.8 379.2h-36.5c-1.7 0-3.1-1.1-3.6-2.7-0.6-1.6 0-3.3 1.3-4.3l0.6 0.8c-1.2 0.9-1.3 2.2-1 3.2 0.3 0.9 1.2 2 2.7 2h36.5c4.6 0 8.4-3.8 8.4-8.5v-107.8c0-5.1 4.1-9.2 9.1-9.2h10.9v1h-10.9c-4.5 0-8.1 3.7-8.1 8.2v107.8c0 5.2-4.2 9.5-9.4 9.5z"/><path fill-rule="evenodd" class="a" d="m179.8 254.8h65.7v127.6h-65.7z"/><path fill-rule="evenodd" class="g" d="m242.5 254.8h5.4v127.6h-5.4z"/><path fill-rule="evenodd" class="g" d="m249.6 264.3h-130.5v-9.5h130.5z"/><path fill-rule="evenodd" class="a" d="m52.7 254.8h65.7v127.6h-65.7z"/><path fill-rule="evenodd" class="g" d="m115.4 254.8h5.4v127.6h-5.4z"/><path fill-rule="evenodd" class="a" d="m98 216.7h61.2l8.8 36.1h-61.1z"/><path fill-rule="evenodd" class="a" d="m106.9 252.8l0.2 2h61.2l-0.3-2z"/><path fill-rule="evenodd" class="b" d="m99.9 216.7h61.2l8.8 36.1h-61.1z"/><path fill-rule="evenodd" class="f" d="m110.1 251.1l-8.1-32.8h57.8l8 32.8z"/><path fill-rule="evenodd" class="b" d="m124.7 252.8l0.3 2h67.3l-0.3-2z"/><path class="b" d="m77.1 245.7c0 0-9-15.5 3.5-27.9 0 0 3.2 2.1 3.2 5-0.1 2.8-3.5 3.6-2.8 6 0.8 2.3 4 4.7 1.9 6.6-2.2 2 0.3 3.8 0.2 6.2-0.2 2.4-6 4.1-6 4.1z"/><path class="b" d="m77.8 247.1c0 0 3.6-17.6-12.1-25.3 0 0-2.5 3-1.5 5.7 0.9 2.7 4.4 2.3 4.5 4.8 0 2.5-2.3 5.7 0.3 6.9 2.7 1.2 0.9 3.7 1.8 5.9 0.9 2.2 7 2 7 2z"/><path class="a" d="m64 243.2c0 0 0.3 11.6 11.7 11.6 11.5 0 11.8-11.6 11.8-11.6z"/><path class="g" d="m225.7 382.4h-2.2l-6.6-32.2-1.1-5.6-7.1-35h-27.3l-14.8 72.8h-2.3l15.1-74.2c0.1-0.5 0.5-0.9 1.1-0.9h29.1c0.5 0 1 0.4 1.1 0.9l6.2 30.8 1.2 5.6z"/><path class="g" d="m269.5 382.4h-2.2l-14.8-72.8h-27.3l-7.1 35-1.2 5.6-6.5 32.2h-2.3l7.7-37.8 1.1-5.6 6.3-30.8c0.1-0.5 0.5-0.9 1.1-0.9h29.1c0.5 0 1 0.4 1.1 0.9z"/><path class="d" d="m202.3 308.4h50.1c9.6 0 17.4-7.6 17.6-17.2l1.9-76.2c0.1-7.2-5.7-13-12.8-13h-31.5c-6.5 0-11.9 4.8-12.7 11.3z"/><path class="d" d="m180.6 298.8h49v9.6h-53.4c-1.4 0-2.5-1.1-2.5-2.5v-0.2c0-3.8 3.1-6.9 6.9-6.9z"/><path fill-rule="evenodd" class="i" d="m250 427.6c-107.2 0-193.9-5.1-193.9-11.4 0-6.2 86.7-11.3 193.9-11.3 107.2 0 193.9 5.1 193.9 11.3 0 6.3-86.7 11.4-193.9 11.4z"/><path class="j" d="m276.4 170.8l0.7 0.6q0.4 0.3 0.8 0.6 0.7 0.6 1.6 1.2c1 0.8 2.2 1.5 3.3 2.2q3.5 2.2 7.3 3.7c2.5 1.1 5.1 2 7.7 2.7 0.7 0.2 1.4 0.3 2 0.4l1 0.2c0.3 0.1 0.1 0.1 0 0.1-0.1 0-0.3 0.1-0.4 0.2-0.1 0.1-0.1 0 0 0 0-0.1 0.3-0.4 0.4-0.9 0.3-1 0.6-2.3 0.7-3.6q0.1-2 0.1-4.1c0-2.7-0.2-5.6-0.4-8.5-0.3-2.8-0.6-5.7-1-8.6-0.3-2.8-0.7-5.7-1.2-8.6l3.8-0.8c1.6 5.7 3 11.4 4 17.3q0.7 4.4 1.1 9 0.1 2.3 0.1 4.7c-0.1 1.6-0.2 3.3-0.7 5.1-0.3 0.9-0.6 2-1.4 3-0.4 0.6-0.8 1.2-1.5 1.7-0.7 0.4-1.6 0.8-2.4 1-0.8 0.1-1.8 0.1-2.3 0l-1.1-0.2c-0.8-0.2-1.6-0.3-2.3-0.4q-4.6-0.9-9-2.6-4.4-1.7-8.5-4.1-2-1.2-3.9-2.6-1-0.6-1.9-1.4-0.5-0.4-1-0.8c-0.3-0.3-0.6-0.5-1-0.9z"/><path class="k" d="m265.6 166.3c10.9-1.5 19.8 7.3 19.8 7.3l-10.1 15.6c0 0-10.7-6.9-12.6-11.6-2-4.9-2.8-10.6 2.9-11.3z"/><path class="j" d="m299.2 149.8l-3.7-7.3 9.6-0.1c0 0 0.2 5.1-2.2 8z"/><path fill-rule="evenodd" class="j" d="m297.2 134.6l7.1 1.3 0.8 6.5-9.6 0.1z"/><path fill-rule="evenodd" class="j" d="m226.7 407.9l8.9 0.8 6.2-21-8.9-0.9z"/><path fill-rule="evenodd" class="j" d="m169.7 376.8l6.6 6.2 14.4-15.8-6.7-6.2z"/><path class="l" d="m179.4 380l-5-9c-0.2-0.3-0.5-0.5-0.9-0.3l-7.7 2.9c-0.8 0.3-1.1 1.3-0.7 2.1 1.8 3.1 2.8 4.5 5 8.4 1.4 2.5 4 8 5.9 11.4 1.8 3.3 5.3 1.7 4.8 0.1-2.1-7-1.7-10.9-1.1-14 0.1-0.6 0-1.1-0.3-1.6z"/><path class="l" d="m236.7 406h-10.9c-0.4 0-0.7 0.3-0.8 0.7l-2.4 8.6c-0.2 0.8 0.4 1.7 1.3 1.7 3.9 0 5.7 0 10.4 0 3 0 10.6 0 14.6 0 4 0 4.8-4 3.2-4.4-7.4-1.6-11.6-3.9-13.9-6-0.4-0.4-0.9-0.6-1.5-0.6z"/><path fill-rule="evenodd" class="m" d="m241.8 387.7l-3.2 10.8h-9.2l3.5-11.7z"/><path fill-rule="evenodd" class="m" d="m184 361l6.7 6.2-7.4 8.2-6.7-6.3z"/><path class="n" d="m276.4 160.1c-0.1-7.3-6.6-9.8-6.6-9.8 0 0 8.2-15.6 3.9-26-4.2-10.3-18.1-12.1-22.6-7.3-7.7-0.3-10.2 10.8-10.2 10.8 0 0-6.5 1.1-8.2 5.8-1.8 4.8 3.5 10.1 3.5 10.1 0 0-7.4 1-10.1 6.7-2.7 5.7-1.1 13.3 7.1 19.8 12 9.5 33.9-2.4 33.9-2.4 0 0 9.4 0.6 9.3-7.7z"/><path class="k" d="m275 167.3c0 0 3.9 1.7-9.4 54.5-14.7-1.3-29.9-2.6-37-3.2 1.9-15 2.7-24.3-1.8-55.9 0 0 7.9-1 15.9-0.7 6.2 0.2 11.4 0.5 16.8 1.5 7.2 1.2 15.5 3.8 15.5 3.8z"/><path class="f" d="m265.4 164.7c-1.9-0.4-3.9-0.9-5.9-1.2-5.4-1-10.5-1.2-16.8-1.5-1.9-0.1-3.9-0.1-5.7 0l1.3 2.3c0.2 0.5 5.5 10.3 15.5 15.9l2.8 1.5 2.5-1.8c6.5-4.6 7.5-10.6 6.3-15.2z"/><path class="j" d="m246 143.2c0.6 5.5 0.8 15.5-3.3 18.8 0 0 4.7 8.9 13.5 13.8 7.9-5.5 3.3-12.3 3.3-12.3-5.9-2-5.4-6.5-3.9-10.6z"/><path class="m" d="m249.9 147.2l5.6 5.7c-0.3 1-0.6 2-0.7 3-2.3-0.6-5.6-2.9-5.6-5.4-0.1-1.2 0.4-2.8 0.7-3.3z"/><path class="j" d="m245.8 130.7c-1.1 9-1.8 12.8 1.9 18.2 5.5 8.2 16.8 7.5 20.6-1 3.4-7.7 4.6-21.1-3.5-26.3-8-5.1-18 0.1-19 9.1z"/><path class="n" d="m252.7 119.6c7 1.8 0.1 23-11 16.8 0 0 0.5-8.9 3.6-12.7 3.1-3.8 7.4-4.1 7.4-4.1z"/><path class="n" d="m252 120.8c3 4.9 25.2 14.1 17.8 3.6-7.5-10.5-17.8-3.6-17.8-3.6z"/><path class="j" d="m242.9 138.5c-0.2 1.9 0.6 3.7 1.6 4.8 1.5 1.8 3.6 0.7 4.2-1.4 0.6-1.9 0.5-5.1-1.6-6.1-2-0.9-4 0.6-4.2 2.7z"/><path class="n" d="m265.6 221.8c0 0 12.5 55.4 4.2 94.5-5.6 26.2-25.8 79.1-25.8 79.1l-15.8-0.4c0 0 15.3-55.5 18.4-77.3 5.4-37.4-8.1-98.2-8.1-98.2z"/><path class="o" d="m251.2 233l-7.9 12.5c2 12.9 4 29 4.5 44.6 11.1-19.9 5.8-46.6 3.4-57.1z"/><path fill-rule="evenodd" class="k" d="m245.3 396.2l-19.6-0.5 1.2-6 21.3 1z"/><path class="n" d="m257.5 221.2c0 0-7.3 58.8-23.3 90.9-12.9 25.9-47.2 62.8-47.2 62.8l-8.8-9c0 0 23.2-40.1 32.8-57.3 23.4-42.3 4.3-74.5 17.6-90z"/><path fill-rule="evenodd" class="k" d="m187.9 376.2l-11.4-11.1 3.8-5.1 12.4 12.8z"/><path class="p" d="m228.2 216.4l-2 3.2c-0.1 0.2 0.2 0.5 0.6 0.5l38.8 3.4c0.4 0 0.7-0.1 0.7-0.3l0.6-3.3c0.1-0.3-0.2-0.5-0.6-0.5l-37.5-3.2c-0.3-0.1-0.5 0-0.6 0.2z"/><path class="n" d="m232.9 221l-1-0.1c-0.2 0-0.4-0.1-0.4-0.2l0.9-4.3c0-0.1 0.2-0.2 0.4-0.2l1 0.1c0.2 0 0.3 0.1 0.3 0.2l-0.8 4.3c0 0.1-0.2 0.2-0.4 0.2z"/><path class="n" d="m262.8 223.6l-1-0.1c-0.2 0-0.4-0.1-0.3-0.2l0.8-4.3c0-0.1 0.2-0.2 0.4-0.2l1 0.1c0.2 0 0.4 0.1 0.3 0.2l-0.8 4.3c0 0.1-0.2 0.2-0.4 0.2z"/><path class="n" d="m247.8 222.3l-1-0.1c-0.2 0-0.3-0.1-0.3-0.2l0.8-4.3c0.1-0.1 0.3-0.2 0.5-0.2l1 0.1c0.2 0 0.3 0.1 0.3 0.2l-0.9 4.3c0 0.1-0.2 0.2-0.4 0.2z"/><path class="n" d="m258.8 135.7c-0.1 0.7 0.2 1.4 0.7 1.4 0.4 0.1 0.9-0.4 1.1-1.1 0.1-0.7-0.2-1.4-0.7-1.5-0.4-0.1-0.9 0.4-1.1 1.2z"/><path class="n" d="m267 137.2c-0.1 0.7 0.2 1.4 0.7 1.4 0.4 0.1 0.9-0.4 1.1-1.1 0.1-0.7-0.2-1.4-0.7-1.5-0.4-0.1-0.9 0.5-1.1 1.2z"/><path class="n" d="m267.9 136l1.9-0.2c0 0-1.2 1.2-1.9 0.2z"/><path class="q" d="m264.6 138c0 0 0.7 3.4 1.8 5.1-1.1 0.8-2.7 0-2.7 0z"/><path class="n" d="m260.7 145.5q0 0-0.1 0c-3.4-0.6-4.5-3.2-4.5-3.3-0.1-0.1 0-0.2 0.1-0.3 0 0 0.2 0 0.2 0.1 0 0 1.1 2.6 4.3 3.2 0.1 0 0.2 0.1 0.1 0.2q0 0.1-0.1 0.1z"/><path class="n" d="m256.9 130q-0.2 0-0.3-0.1c-0.1-0.2-0.1-0.4 0.1-0.5 1.8-1.5 3.7-0.8 3.8-0.8 0.2 0.1 0.3 0.3 0.2 0.5-0.1 0.1-0.3 0.2-0.5 0.2 0 0-1.5-0.5-3.1 0.6q-0.1 0.1-0.2 0.1z"/><path class="n" d="m271.7 134.4q-0.2 0-0.3-0.1c-1.3-1.5-2.9-1.4-2.9-1.4-0.2 0-0.4-0.1-0.4-0.3 0-0.2 0.1-0.4 0.3-0.4 0.1 0 2.1-0.2 3.6 1.6 0.1 0.2 0.1 0.4-0.1 0.5q-0.1 0.1-0.2 0.1z"/><path class="j" d="m229.6 176c-1.5 3.1-3.2 5.8-5 8.6q-2.7 4.2-5.7 8.1c-2.1 2.6-4.3 5.1-6.7 7.5-1.2 1.1-2.4 2.3-3.7 3.4l-1 0.8-0.2 0.2-0.3 0.2q-0.3 0.3-0.7 0.5c-0.9 0.6-1.9 1.1-2.9 1.5-2.1 0.7-4.2 0.8-6.1 0.7-1.9-0.2-3.7-0.7-5.4-1.2-3.4-1.2-6.4-2.8-9.2-4.6-5.6-3.6-10.6-7.8-15.1-12.5l2.6-2.8c2.4 1.9 4.9 3.8 7.5 5.6 2.6 1.7 5.2 3.4 7.9 4.8 2.7 1.4 5.4 2.7 8.2 3.4 2.7 0.8 5.4 0.9 7.2 0.1 1-0.4 1.6-0.8 2.8-2 1.1-1 2.1-2.1 3.2-3.2 2.1-2.3 4-4.6 5.8-7.1 1.9-2.4 3.6-5 5.2-7.6q1.3-1.9 2.4-3.9c0.8-1.3 1.6-2.7 2.2-3.9z"/><path class="j" d="m172.7 187.6l-3.6-7.3-5.9 7.5c0 0 3.9 3.3 7.7 3.1z"/><path fill-rule="evenodd" class="j" d="m165.2 178.1l-3.3 6.4 1.3 3.3 5.9-7.5z"/><path class="k" d="m226.8 162.7c-4.6 0.8-10.9 13.8-10.9 13.8l12.4 11.3c0 0 8.1-10.8 7.6-16.7-0.4-5.1-3.3-9.4-9.1-8.4z"/><path class="r" d="m181.2 384.8q-0.2 0-0.4 0c-1.1-0.4-1.8-2.4-2.1-3.6q0-0.1 0-0.2 0.1 0 0.2 0c0.4 0.2 3.3 1.7 3.4 2.9 0 0.2-0.1 0.4-0.3 0.6q-0.4 0.3-0.8 0.3zm-2-3.3c0.5 1.7 1.1 2.7 1.7 2.9q0.4 0.2 0.8-0.2c0.2-0.1 0.2-0.2 0.2-0.3-0.1-0.7-1.8-1.8-2.7-2.4z"/><path class="r" d="m181.6 382c-1 0-2.3-0.3-2.8-0.7q-0.1 0-0.1-0.1 0-0.1 0.1-0.2c0.1 0 2.4-1.3 3.6-0.9q0.5 0.2 0.7 0.7c0.2 0.5 0 0.8-0.2 0.9-0.3 0.2-0.7 0.3-1.3 0.3zm-2.4-0.8c1 0.4 2.9 0.7 3.5 0.2 0.1-0.1 0.2-0.2 0-0.5q-0.1-0.3-0.4-0.4c-0.9-0.3-2.4 0.4-3.1 0.7z"/><path class="r" d="m241.5 407.8c-1 0-2.2-0.2-3-0.4q-0.1-0.1-0.1-0.2 0-0.1 0.1-0.2c0.4-0.2 4.4-2 5.4-1.3 0.1 0.1 0.3 0.2 0.2 0.5q0 0.7-0.5 1.1c-0.5 0.3-1.3 0.5-2.1 0.5zm-2.3-0.7c1.1 0.3 3.3 0.5 4.2-0.1q0.4-0.3 0.4-0.8c0-0.1-0.1-0.2-0.1-0.2-0.6-0.4-2.9 0.4-4.5 1.1z"/><path class="r" d="m238.6 407.4q-0.1 0-0.1-0.1-0.1 0-0.1-0.1c0-0.2 0.9-4.1 3.1-3.8 0.5 0 0.7 0.3 0.7 0.5 0.1 1-2.4 3-3.6 3.5q0 0 0 0zm2.7-3.7c-1.4 0-2.2 2.3-2.4 3.2 1.2-0.7 3-2.3 2.9-2.9 0-0.1 0-0.2-0.4-0.3q0 0-0.1 0z"/><path class="n" d="m259.7 134.5l1.9-0.2c0 0-1.2 1.2-1.9 0.2z"/><path class="s" d="m184.5 77.5l-29.3 189.5 164.9 25.5 29.3-189.5zm67.8 107.8c-21.2-3.3-35.6-23-32.4-44.2 3.3-21.1 23.1-35.6 44.2-32.3 21.1 3.3 35.6 23 32.4 44.2-3.3 21.1-23.1 35.6-44.2 32.3z"/><path class="t" d="m315.1 285.3l-0.2-0.1-165.2-25.5v-0.3l29.4-189.6h0.2l165.2 25.5v0.3zm-164.9-26l164.4 25.4 29.3-188.9-164.5-25.5z"/><path class="f" d="m258.2 187.3q-3.1 0-6.2-0.5c-21.9-3.4-37-24-33.6-45.9 1.7-10.6 7.3-20 16-26.3 8.7-6.4 19.3-8.9 29.9-7.3 21.9 3.4 37 24 33.6 45.9-3.1 19.8-20.2 34.1-39.7 34.1zm-5.7-3.5c20.3 3.2 39.3-10.8 42.4-31.1 3.2-20.2-10.8-39.3-31-42.4-9.9-1.6-19.7 0.8-27.7 6.7-8 5.9-13.3 14.5-14.8 24.4-3.1 20.2 10.8 39.3 31.1 42.4z"/><path fill-rule="evenodd" class="k" d="m184 191.4l36.4 5.6-1.3 8.2-36.3-5.6z"/><path fill-rule="evenodd" class="k" d="m225.1 197.8l24.6 3.8-1.2 8.1-24.6-3.8z"/><path fill-rule="evenodd" class="f" d="m181.5 208l131.3 20.3-1.2 8.1-131.4-20.3z"/><path fill-rule="evenodd" class="f" d="m178.8 225.3l65.3 10.1-1.2 8.2-65.4-10.1z"/><path fill-rule="evenodd" class="f" d="m255.3 237.1l43.7 6.8-1.3 8.2-43.7-6.8z"/><path fill-rule="evenodd" class="f" d="m176.1 242.7l105 16.2-1.2 8.2-105.1-16.3z"/><path class="k" d="m351.2 292.5h-1c0-2.5-0.3-5-0.9-7.4l0.9-0.2c0.7 2.5 1 5 1 7.6zm-3.9-12.9c-2.2-4.6-5.6-8.6-9.7-11.6l0.6-0.8c4.2 3.1 7.7 7.2 10 11.9z"/><path class="k" d="m320.1 264.9c-15.2 0-27.6 12.4-27.6 27.6 0 15.2 12.4 27.6 27.6 27.6 15.2 0 27.6-12.4 27.6-27.6 0-15.2-12.4-27.6-27.6-27.6zm0 51.6c-13.3 0-24-10.8-24-24 0-13.3 10.7-24 24-24 13.3 0 24 10.7 24 24 0 13.2-10.7 24-24 24z"/><path fill-rule="evenodd" class="u" d="m320.1 316.5c-13.3 0-24-10.7-24-24 0-13.3 10.7-24 24-24 13.3 0 24 10.7 24 24 0 13.3-10.7 24-24 24z"/><path fill-rule="evenodd" class="f" d="m316.4 307.7l-14.1-14.1 3.5-3.5 10.6 10.5 18-18 3.5 3.5z"/></svg>