<svg width="26" height="26" viewBox="0 0 26 26" fill="none" xmlns="http://www.w3.org/2000/svg">
<path d="M10.8333 9.75H18.4167M10.8333 14.0833H18.4167M7.58333 9.75H7.59417M7.58333 14.0833H7.59417M22.75 21.6667L19.1487 19.8659C18.8757 19.7294 18.7392 19.6612 18.5961 19.6131C18.4691 19.5704 18.3383 19.5395 18.2056 19.5209C18.0561 19.5 17.9035 19.5 17.5983 19.5H6.71667C5.50321 19.5 4.89649 19.5 4.43302 19.2638C4.02533 19.0562 3.69387 18.7247 3.48616 18.317C3.25 17.8535 3.25 17.2468 3.25 16.0333V7.79999C3.25 6.58654 3.25 5.97982 3.48616 5.51635C3.69387 5.10866 4.02533 4.7772 4.43302 4.56948C4.89649 4.33333 5.50322 4.33333 6.71667 4.33333H19.2833C20.4968 4.33333 21.1036 4.33333 21.567 4.56948C21.9747 4.7772 22.3062 5.10866 22.5138 5.51635C22.75 5.97982 22.75 6.58655 22.75 7.79999V21.6667Z" stroke="#475569" stroke-width="1.7" stroke-linecap="round" stroke-linejoin="round"/>
</svg>
