<svg width="30" height="30" viewBox="0 0 30 30" fill="none" xmlns="http://www.w3.org/2000/svg">
<g clip-path="url(#clip0_44_325)">
<path d="M20.9127 15.1464H12.5577C12.1982 15.1464 11.9067 14.8569 11.9067 14.4998C11.9067 14.1425 12.1982 13.853 12.5577 13.853H20.9123L18.1837 10.7799C17.9467 10.5134 17.9717 10.1063 18.2398 9.87069C18.5081 9.63489 18.918 9.65971 19.1553 9.92623L22.8374 14.0732C23.0577 14.3206 23.0519 14.6894 22.8351 14.9297L19.1551 19.0736C18.918 19.3403 18.5079 19.3651 18.2396 19.1291C17.9715 18.8935 17.9464 18.4862 18.1835 18.2197L20.9127 15.1464ZM18.6559 22.2696C18.6559 21.9123 18.9502 21.6228 19.3133 21.6228C19.6766 21.6228 19.971 21.9123 19.971 22.2696V25.1671C19.971 25.6707 19.7606 26.1292 19.4232 26.4611C19.0853 26.7931 18.619 26.9998 18.1074 26.9998H5.86382C5.35178 26.9998 4.88526 26.7935 4.54741 26.4615C4.21019 26.1298 4 25.6719 4 25.1671V3.83289C4 3.32833 4.20957 2.86995 4.547 2.53792C4.88443 2.2061 5.35054 2 5.86382 2H18.1072C18.6201 2 19.086 2.20671 19.4234 2.53833C19.7612 2.87056 19.9708 3.32955 19.9708 3.83289V6.73022C19.9708 7.08728 19.6764 7.37679 19.3131 7.37679C18.95 7.37679 18.6556 7.08728 18.6556 6.73022V3.83289C18.6556 3.68599 18.5934 3.55111 18.4932 3.45264C18.3935 3.35457 18.2566 3.29333 18.107 3.29333H5.86382C5.71362 3.29333 5.57645 3.35437 5.47694 3.45243C5.37702 3.55029 5.31516 3.68518 5.31516 3.83289V25.1671C5.31516 25.3144 5.37743 25.4489 5.47715 25.547C5.57728 25.6454 5.71445 25.7067 5.86382 25.7067H18.1072C18.2562 25.7067 18.3929 25.6452 18.493 25.5468C18.5934 25.4483 18.6559 25.3136 18.6559 25.1671V22.2696Z" fill="#475569"/>
</g>
<defs>
<clipPath id="clip0_44_325">
<rect width="19" height="25" fill="white" transform="translate(4 2)"/>
</clipPath>
</defs>
</svg>
