<svg width="33" height="40" viewBox="0 0 33 40" fill="none" xmlns="http://www.w3.org/2000/svg">
<g clip-path="url(#clip0_57_70)">
<path fill-rule="evenodd" clip-rule="evenodd" d="M7.32537 3.08011H10.9577C11.1712 1.34305 12.5833 0 14.2963 0C15.9983 0 17.4034 1.32507 17.6302 3.04415L21.3137 3.08011C21.5193 3.08011 21.6839 3.24428 21.6839 3.44832V7.50093C21.6839 7.70497 21.5193 7.86835 21.3137 7.86835H7.32852C7.1269 7.86835 6.95757 7.70497 6.95757 7.50093V3.44832C6.95689 3.40004 6.96593 3.35212 6.98413 3.30735C7.00234 3.26258 7.02936 3.22187 7.0636 3.18758C7.09785 3.1533 7.13864 3.12614 7.18358 3.10768C7.22853 3.08923 7.27673 3.07986 7.32537 3.08011ZM24.8067 23.7356C29.333 23.7356 33 27.377 33 31.8674C33 36.3602 29.3306 40 24.8067 40C20.2804 40 16.6142 36.3578 16.6142 31.8674C16.6142 27.3747 20.2828 23.7356 24.8067 23.7356ZM27.2293 27.8007C27.123 27.7296 27.0033 27.6968 26.8812 27.721C26.7599 27.7444 26.6552 27.8093 26.5827 27.9133L26.1708 28.4902C25.892 28.3659 25.5368 28.2854 25.2344 28.2424L25.1052 27.488C25.0808 27.3614 25.0162 27.2644 24.9193 27.1917C24.8146 27.1198 24.702 27.0956 24.5728 27.1198L23.6206 27.2879C23.4993 27.3121 23.4016 27.3684 23.3221 27.4724C23.2496 27.5764 23.2174 27.6897 23.2402 27.8179L23.3615 28.5067C23.0685 28.6286 22.7787 28.8053 22.5306 29.0031L21.8847 28.5622C21.78 28.4902 21.6674 28.4582 21.5461 28.4824C21.4248 28.5067 21.3193 28.5708 21.2476 28.6747L20.6979 29.4526C20.6262 29.5565 20.5931 29.6762 20.6175 29.7958C20.6411 29.9248 20.7057 30.0209 20.8113 30.092L21.3917 30.5017C21.2696 30.7761 21.1862 31.1333 21.1428 31.4304L20.3836 31.5586C20.2544 31.5836 20.1576 31.647 20.0843 31.7439C20.0119 31.8479 19.9882 31.9589 20.0119 32.0879L20.1804 33.033C20.2056 33.1542 20.2623 33.2496 20.3671 33.3301C20.4718 33.4028 20.5852 33.4348 20.7144 33.4098L21.409 33.2894C21.5374 33.5912 21.7115 33.8624 21.9084 34.1236L21.4642 34.756C21.3917 34.86 21.3594 34.9733 21.3846 35.0929C21.409 35.2125 21.4736 35.3165 21.5784 35.3892L22.3691 35.9411C22.4739 36.0146 22.5952 36.0381 22.7157 36.0146C22.8369 35.9904 22.9417 35.9341 23.0236 35.8301L23.4339 35.2446C23.7175 35.3681 24.0648 35.4471 24.3712 35.4932L24.5011 36.2468C24.524 36.375 24.5885 36.4712 24.6854 36.5439C24.791 36.615 24.9044 36.6392 25.0327 36.615L25.9857 36.4469C26.107 36.4227 26.2031 36.3664 26.2842 36.2624C26.3567 36.1585 26.389 36.0467 26.3646 35.9185L26.2441 35.229C26.5504 35.1015 26.8182 34.9288 27.0836 34.7318L27.7216 35.1727C27.8263 35.2446 27.9389 35.2766 28.0681 35.2524C28.1973 35.229 28.2942 35.1656 28.3674 35.0601L28.9234 34.2752C28.9959 34.1712 29.0211 34.0508 28.9959 33.9312C28.9731 33.8101 28.9163 33.7069 28.8116 33.6264L28.2217 33.2261C28.3446 32.9509 28.428 32.5937 28.4714 32.2966L29.2306 32.1684C29.3598 32.1442 29.4566 32.0801 29.5299 31.9839C29.6023 31.8799 29.6268 31.7681 29.6023 31.6399L29.433 30.694C29.4086 30.5736 29.3519 30.4775 29.2463 30.3977C29.1416 30.325 29.0282 30.293 28.899 30.3172L28.2052 30.4376C28.0713 30.1382 27.9122 29.8685 27.705 29.6128L28.1492 28.971C28.2217 28.867 28.254 28.7545 28.2296 28.6349C28.2052 28.5145 28.1406 28.4105 28.0358 28.3378L27.2522 27.7937L27.2293 27.8007ZM24.8083 29.8474C25.9322 29.8474 26.8434 30.7519 26.8434 31.8674C26.8434 32.983 25.9322 33.8875 24.8083 33.8875C23.6844 33.8875 22.7724 32.983 22.7724 31.8674C22.7724 30.7519 23.6844 29.8474 24.8083 29.8474ZM3.28661 4.63424H5.17131V6.53937H3.28661C2.91093 6.53937 2.56833 6.69338 2.32181 6.93807C2.07451 7.18354 1.92014 7.52282 1.92014 7.89493V32.5608C1.92014 32.9322 2.07451 33.2722 2.32181 33.5177C2.5699 33.7639 2.91329 33.918 3.28661 33.918H14.5184C14.6515 34.5778 14.8468 35.2157 15.0989 35.8239H3.28661C2.38482 35.8239 1.56179 35.4557 0.965585 34.8639C0.371742 34.2744 0 33.4575 0 32.5608V7.89493C0 6.99748 0.370167 6.18211 0.964797 5.59189C1.55943 5.00166 2.38167 4.63424 3.28661 4.63424ZM26.7205 21.6257V7.89493C26.7205 7.52204 26.5662 7.18275 26.3197 6.9365C26.0635 6.68242 25.7162 6.53959 25.3541 6.53937H23.4702V4.63424H25.3541C26.2551 4.63424 27.0758 5.00244 27.6704 5.59189C28.2697 6.1868 28.6407 7.00217 28.6407 7.89493V22.1705C28.0272 21.9305 27.3845 21.7468 26.7205 21.6257ZM10.4379 20.9956C9.87637 20.9956 9.41957 20.5429 9.41957 19.9855C9.41957 19.4281 9.87637 18.9747 10.4379 18.9747H21.6863C22.2478 18.9747 22.7038 19.4281 22.7038 19.9855C22.7038 20.5429 22.2478 20.9956 21.6863 20.9956H10.4379ZM7.04893 18.8567C7.67742 18.8567 8.1862 19.3625 8.1862 19.9855C8.1862 20.6094 7.67742 21.1144 7.04893 21.1144C6.42122 21.1144 5.91165 20.6094 5.91165 19.9855C5.91165 19.3625 6.42122 18.8567 7.04893 18.8567ZM7.04893 25.0028C7.67742 25.0028 8.1862 25.5086 8.1862 26.1317C8.1862 26.7555 7.67742 27.2605 7.04893 27.2605C6.42122 27.2605 5.91165 26.7555 5.91165 26.1317C5.91165 25.5086 6.42122 25.0028 7.04893 25.0028ZM10.4387 27.1417C9.87716 27.1417 9.42036 26.6891 9.42036 26.1317C9.42036 25.5743 9.87716 25.1209 10.4387 25.1209H16.815C16.2844 25.7398 15.8282 26.418 15.4557 27.1417H10.4387ZM7.04893 12.7121C7.67742 12.7121 8.1862 13.2171 8.1862 13.8402C8.1862 14.464 7.67742 14.969 7.04893 14.969C6.42122 14.969 5.91165 14.464 5.91165 13.8402C5.91165 13.2171 6.42122 12.7121 7.04893 12.7121ZM10.4379 14.8502C9.87637 14.8502 9.41957 14.3976 9.41957 13.8402C9.41957 13.282 9.87637 12.8294 10.4379 12.8294H21.6863C22.2478 12.8294 22.7038 13.282 22.7038 13.8402C22.7038 14.3976 22.2478 14.8502 21.6863 14.8502H10.4379ZM14.2577 1.57602C15.2257 1.57602 16.0109 2.35464 16.0109 3.31698C16.0109 4.27776 15.2257 5.05638 14.2577 5.05638C13.289 5.05638 12.5046 4.27776 12.5046 3.31698C12.5046 2.35464 13.289 1.57602 14.2577 1.57602Z" fill="#796DF6"/>
</g>
<defs>
<clipPath id="clip0_57_70">
<rect width="33" height="40" fill="white"/>
</clipPath>
</defs>
</svg>
