<svg width="21" height="19" viewBox="0 0 21 19" fill="none" xmlns="http://www.w3.org/2000/svg">
<path d="M6.34375 5.11775V2.17241C6.34375 1.52491 6.87542 1 7.53125 1H13.4688C14.1246 1 14.6562 1.52491 14.6562 2.17241V5.11775M1 9.2069V16.8276C1 17.4751 1.53167 18 2.1875 18H18.8125C19.4684 18 20 17.4751 20 16.8276V9.2069M1 9.2069V6.29017C1 5.64265 1.53167 5.11775 2.1875 5.11775H18.8125C19.4684 5.11775 20 5.64265 20 6.29017V9.2069M1 9.2069L9.66614 12.4154C10.2037 12.6144 10.7963 12.6144 11.3339 12.4154L20 9.2069" stroke="#475569" stroke-width="1.3"/>
</svg>
