<svg width="71" height="53" viewBox="0 0 71 53" fill="none" xmlns="http://www.w3.org/2000/svg">
<path fill-rule="evenodd" clip-rule="evenodd" d="M70.2431 23.4304C70.7342 24.2591 71 25.1461 71 26.0623C71 30.9293 63.5464 34.8743 54.3594 34.8743C45.1724 34.8743 37.7188 30.9293 37.7188 26.0623C37.7188 25.1461 37.9845 24.2591 38.4757 23.4304C40.5904 27.0077 46.9 29.6104 54.3594 29.6104C61.8188 29.6104 68.1283 27.0135 70.2431 23.4304ZM32.5243 36.5549C33.0155 37.3895 33.2812 38.2706 33.2812 39.1869C33.2812 44.0538 25.8276 47.9988 16.6406 47.9988C7.45361 47.9988 0 44.0538 0 39.1869C0 38.2706 0.265788 37.3836 0.756917 36.5549C2.87166 40.1322 9.18701 42.735 16.6406 42.735C24.1 42.735 30.4096 40.1381 32.5243 36.5549ZM19.0558 23.6697L19.0212 21.4871C19.5123 21.4696 19.911 21.3179 20.2172 21.0378C20.5292 20.7577 20.6968 20.4192 20.7314 20.0224C20.7719 19.5672 20.6217 19.1703 20.2865 18.8202C19.9514 18.4759 19.4083 18.2658 18.6745 18.2016C17.9869 18.1433 17.4553 18.2541 17.0855 18.5342C16.7157 18.8144 16.5077 19.2054 16.4673 19.7072C16.4153 20.3316 16.6406 20.9152 17.1433 21.4579L16.7389 23.197L10.9955 21.5688L11.4867 15.8265L13.4974 16.0015L13.1449 20.0982L15.0228 20.6059C14.8263 20.0982 14.7454 19.5963 14.7917 19.0886C14.8726 18.1257 15.2944 17.3379 16.0397 16.731C16.7909 16.1241 17.7211 15.8673 18.8305 15.9665C19.755 16.0482 20.5523 16.3867 21.2284 16.9936C22.1528 17.8165 22.5631 18.8844 22.4475 20.1916C22.3551 21.2362 22.0084 22.0649 21.3959 22.6776C20.7892 23.2962 20.0092 23.6288 19.0558 23.6697ZM16.6406 14.9161C24.1925 14.9161 30.3171 17.3438 30.3171 20.3316C30.3171 23.3254 24.1925 25.7472 16.6406 25.7472C9.08879 25.7472 2.96411 23.3312 2.96411 20.3375C2.96411 17.3438 9.08879 14.9161 16.6406 14.9161ZM16.6406 13.1245C25.8276 13.1245 33.2812 17.0695 33.2812 21.9365C33.2812 26.8035 25.8276 30.7484 16.6406 30.7484C7.45361 30.7426 0 26.7976 0 21.9365C0 17.0695 7.45361 13.1245 16.6406 13.1245ZM32.5821 27.8072C33.0328 28.6067 33.2812 29.4587 33.2812 30.3341C33.2812 35.2011 25.8276 39.146 16.6406 39.146C7.45361 39.146 0 35.2011 0 30.3399C0 29.4587 0.242676 28.6125 0.699137 27.813C2.7561 31.4429 9.1119 34.0923 16.6406 34.0923C24.1694 34.0864 30.5309 31.4429 32.5821 27.8072ZM60.3685 5.22297L60.1778 7.41136L52.0077 6.69357C52.6838 7.55726 53.146 8.54933 53.406 9.66395L51.4415 9.48888C51.3086 8.90531 51.0081 8.25171 50.5517 7.53975C50.0894 6.82196 49.529 6.31425 48.8587 6.00495L49.0147 4.2309L60.3685 5.22297ZM54.3594 1.7974C61.9112 1.7974 68.0359 4.22506 68.0359 7.21295C68.0359 10.2067 61.9112 12.6285 54.3594 12.6285C46.8075 12.6285 40.6829 10.2008 40.6829 7.21295C40.6829 4.21922 46.8075 1.7974 54.3594 1.7974ZM54.3594 0C63.5464 0 71 3.94495 71 8.81194C71 13.6789 63.5464 17.6239 54.3594 17.6239C45.1724 17.6239 37.7188 13.6789 37.7188 8.81194C37.7188 3.94495 45.1724 0 54.3594 0ZM70.3009 14.6827C70.7515 15.4822 71 16.3342 71 17.2095C71 22.0765 63.5464 26.0215 54.3594 26.0215C45.1724 26.0215 37.7188 22.0765 37.7188 17.2095C37.7188 16.3283 37.9614 15.4822 38.4179 14.6827C40.4691 18.3125 46.8307 20.9619 54.3594 20.9619C61.8881 20.9677 68.2497 18.3183 70.3009 14.6827ZM70.1391 41.3869C70.6938 42.2681 71 43.2077 71 44.1881C71 49.0551 63.5464 53 54.3594 53C45.1724 53 37.7188 49.0551 37.7188 44.1881C37.7188 43.2077 38.0192 42.2681 38.5797 41.3869C40.7926 44.8767 47.0213 47.3977 54.3594 47.3977C61.6974 47.3977 67.9319 44.8825 70.1391 41.3869ZM70.22 32.324C70.7284 33.1702 71 34.0631 71 34.9968C71 39.8638 63.5464 43.8087 54.3594 43.8087C45.1724 43.8087 37.7188 39.8638 37.7188 34.9968C37.7188 34.0631 37.9961 33.1644 38.4988 32.324C40.6366 35.8838 46.9289 38.4574 54.3594 38.4574C61.7899 38.4574 68.0763 35.8838 70.22 32.324Z" fill="#B78400"/>
</svg>
