<svg width="30" height="30" viewBox="0 0 30 30" fill="none" xmlns="http://www.w3.org/2000/svg">
<path fill-rule="evenodd" clip-rule="evenodd" d="M22.1085 15.5787C22.2499 11.6152 19.2378 8.2815 15.3737 8.125C11.5096 8.2815 8.4975 11.6152 8.63887 15.5787C8.63887 17.225 6.89487 18.8287 6.84375 20.4787C6.84375 20.5021 6.84375 20.5254 6.84375 20.5487C6.806 21.6059 7.6095 22.4949 8.64012 22.5362H12.5304C12.5267 23.3462 12.8245 24.1272 13.3627 24.72C13.8804 25.2965 14.6096 25.6245 15.3737 25.6245C16.1379 25.6245 16.867 25.2965 17.3846 24.72C17.923 24.1272 18.2207 23.3462 18.2171 22.5362H22.1085C23.1391 22.4949 23.9427 21.6059 23.905 20.5487C23.905 20.5254 23.905 20.5021 23.905 20.4787C23.8526 18.8337 22.1085 17.2262 22.1085 15.5787Z" stroke="#475569" stroke-width="1.5" stroke-linecap="round" stroke-linejoin="round"/>
<path d="M18.217 21.5987C18.7348 21.5987 19.1545 22.0185 19.1545 22.5362C19.1545 23.054 18.7348 23.4737 18.217 23.4737V21.5987ZM12.5303 23.4737C12.0126 23.4737 11.5928 23.054 11.5928 22.5362C11.5928 22.0185 12.0126 21.5987 12.5303 21.5987V23.4737ZM14.155 6.5625C13.6372 6.5625 13.2175 6.14276 13.2175 5.625C13.2175 5.10724 13.6372 4.6875 14.155 4.6875V6.5625ZM16.5925 4.6875C17.1102 4.6875 17.5299 5.10724 17.5299 5.625C17.5299 6.14276 17.1102 6.5625 16.5925 6.5625V4.6875ZM18.217 23.4737H12.5303V21.5987H18.217V23.4737ZM14.155 4.6875H16.5925V6.5625H14.155V4.6875Z" fill="#475569"/>
</svg>
