<svg width="22" height="22" viewBox="0 0 22 22" fill="none" xmlns="http://www.w3.org/2000/svg">
<g clip-path="url(#clip0_44_348)">
<path d="M11.11 11.715C11.0458 11.7058 10.9633 11.7058 10.89 11.715C9.27665 11.66 7.99329 10.34 7.99329 8.71748C7.99329 7.05832 9.33165 5.71082 11 5.71082C12.6591 5.71082 14.0066 7.05832 14.0066 8.71748C13.9975 10.34 12.7233 11.66 11.11 11.715Z" stroke="#475569" stroke-width="1.7" stroke-linecap="round" stroke-linejoin="round"/>
<path d="M17.1783 17.7651C15.5466 19.2593 13.3833 20.1668 11 20.1668C8.61666 20.1668 6.45332 19.2593 4.82166 17.7651C4.91332 16.9034 5.46332 16.0601 6.44416 15.4001C8.95582 13.7318 13.0625 13.7318 15.5558 15.4001C16.5366 16.0601 17.0866 16.9034 17.1783 17.7651Z" stroke="#475569" stroke-width="1.7" stroke-linecap="round" stroke-linejoin="round"/>
<path d="M11 20.1667C16.0626 20.1667 20.1667 16.0626 20.1667 11C20.1667 5.9374 16.0626 1.83334 11 1.83334C5.93743 1.83334 1.83337 5.9374 1.83337 11C1.83337 16.0626 5.93743 20.1667 11 20.1667Z" stroke="#475569" stroke-width="1.7" stroke-linecap="round" stroke-linejoin="round"/>
</g>
<defs>
<clipPath id="clip0_44_348">
<rect width="22" height="22" fill="white"/>
</clipPath>
</defs>
</svg>
