<svg width="29" height="28" viewBox="0 0 29 28" fill="none" xmlns="http://www.w3.org/2000/svg">
<g clip-path="url(#clip0_57_65)">
<path d="M11.7974 0H11.8012V0.00163607C15.0578 0.00257097 18.0067 1.31073 20.1406 3.42454C22.271 5.53531 23.5908 8.45313 23.5929 11.6757H23.5946V11.6834V11.6928H23.5929C23.5917 12.9916 23.3765 14.2416 22.9807 15.4071C22.9144 15.6028 22.845 15.7907 22.7737 15.9702V15.9718C22.4325 16.8273 21.9914 17.6359 21.4646 18.3808L28.3281 24.4902L28.3323 24.4939L28.3694 24.528L28.372 24.5306C28.7595 24.8959 28.9705 25.3851 28.9972 25.8815C29.0231 26.3723 28.869 26.8744 28.5301 27.2771L28.5275 27.2808L28.4862 27.3283L28.478 27.3365L28.4435 27.3739L28.4397 27.3788C28.0704 27.7625 27.5774 27.971 27.0756 27.9972C26.5807 28.0231 26.0733 27.871 25.6664 27.5349L25.6629 27.5323L25.6148 27.4914L25.6079 27.4858L18.588 21.2374C18.3803 21.3823 18.1683 21.52 17.9538 21.6499C17.6628 21.8264 17.3614 21.9926 17.0539 22.1443C15.4729 22.9254 13.6864 23.3648 11.7976 23.3648V23.3664H11.7939V23.3648C8.53723 23.3638 5.58788 22.0557 3.45393 19.9419C1.32281 17.8311 0.00377607 14.9128 0.00165203 11.6911H0V11.6834V11.6797H0.00165203C0.00259605 8.45453 1.32351 5.53367 3.45794 3.42033C5.5893 1.31073 8.53558 0.0037396 11.7896 0.00163607V0H11.7974ZM11.8012 2.62006V2.62169H11.7974H11.7896V2.62006C9.26766 2.62169 6.98172 3.63676 5.32686 5.27494C3.67223 6.91311 2.64632 9.17931 2.64561 11.6799H2.64726V11.6837V11.6914H2.64561C2.64726 14.189 3.67152 16.4517 5.32639 18.091C6.98054 19.7299 9.26884 20.7459 11.7936 20.7463V20.7447H11.7974H11.8052V20.7463C14.3271 20.7447 16.6121 19.7301 18.2675 18.0915C19.9221 16.4533 20.948 14.1878 20.9485 11.6874H20.9471V11.6837V11.676H20.9485C20.9471 9.17837 19.9219 6.91452 18.2679 5.27564C16.6138 3.63676 14.3262 2.62076 11.8012 2.62006Z" fill="#F0B621"/>
</g>
<defs>
<clipPath id="clip0_57_65">
<rect width="29" height="28" fill="white"/>
</clipPath>
</defs>
</svg>
