<svg id="SvgjsSvg1001" width="288" height="288" xmlns="http://www.w3.org/2000/svg" version="1.1" xmlns:xlink="http://www.w3.org/1999/xlink" xmlns:svgjs="http://svgjs.com/svgjs"><defs id="SvgjsDefs1002"></defs><g id="SvgjsG1008"><svg xmlns="http://www.w3.org/2000/svg" viewBox="0 0 512 512" width="288" height="288"><g data-name="Search people"><g data-name="&amp;lt;Group&amp;gt;"><path fill="none" stroke="#475569" stroke-miterlimit="10" stroke-width="15" d="M374.66,190A180.94,180.94,0,0,1,193.74,371C93.82,371,12.81,290,12.81,190a180.93,180.93,0,1,1,361.85,0Z" class="colorStroke231f20 svgStroke"></path><polyline fill="none" stroke="#231f20" stroke-linejoin="round" stroke-width="15" points="313.1 316.81 317.9 321.61 349.13 352.84"></polyline><path fill="none" stroke="#475569" stroke-linejoin="round" stroke-width="15" d="M487.76,491.48a20.32,20.32,0,0,1-28.73,0L349.13,381.57a20.32,20.32,0,0,1,28.73-28.73l109.9,109.9A20.32,20.32,0,0,1,487.76,491.48Z" class="colorStroke231f20 svgStroke"></path><path fill="none" stroke="#475569" stroke-miterlimit="10" stroke-width="15" d="M239.52 123.38a46 46 0 1 1-46-46A46 46 0 0 1 239.52 123.38zM293.72 272.75H93.35c0-42.1 44.82-76.31 100.13-76.31S293.72 230.65 293.72 272.75z" class="colorStroke231f20 svgStroke"></path></g></g></svg></g></svg>