<svg width="21" height="21" viewBox="0 0 21 21" fill="none" xmlns="http://www.w3.org/2000/svg">
<g clip-path="url(#clip0_44_360)">
<path d="M16.744 3.19666C16.6876 3.14026 16.6295 3.09959 16.5697 3.07429C16.5136 3.05054 16.4482 3.03892 16.3731 3.03892C16.2978 3.03892 16.2309 3.05088 16.1742 3.07498C16.1154 3.09976 16.0587 3.13975 16.0043 3.19495L16.0007 3.19854L14.94 4.25605C14.7811 4.41414 14.5355 4.43174 14.3572 4.30955C14.2325 4.22888 14.0995 4.15112 13.9601 4.07576C13.8122 3.99578 13.6673 3.924 13.5258 3.85906C13.3783 3.79172 13.2278 3.72832 13.0745 3.66885C12.9355 3.61484 12.7807 3.55981 12.6119 3.5041C12.4186 3.44036 12.2957 3.26057 12.2957 3.06729V1.44067C12.2957 1.36274 12.2834 1.29387 12.259 1.23389C12.2345 1.17458 12.1973 1.11938 12.1458 1.06812C12.0958 1.01804 12.0414 0.980957 11.9819 0.95686C11.9221 0.932422 11.8531 0.920288 11.775 0.920288H9.73361C9.66132 0.920288 9.59724 0.931909 9.54118 0.955151C9.48171 0.97959 9.42343 1.01958 9.36584 1.07529L9.36516 1.07581C9.31457 1.12639 9.27732 1.18022 9.25339 1.23748C9.22878 1.29609 9.21648 1.36377 9.21648 1.44067V2.92988C9.21648 3.15632 9.05293 3.34448 8.8376 3.38293C8.67405 3.4219 8.52298 3.46223 8.38541 3.50444C8.23467 3.55059 8.08309 3.60305 7.93116 3.66235C7.92364 3.66526 7.91612 3.66799 7.9086 3.67039C7.77582 3.722 7.63585 3.78181 7.48888 3.84966C7.33952 3.91853 7.20041 3.98843 7.07155 4.05867C6.88989 4.15762 6.6708 4.12087 6.53066 3.98296L6.53049 3.98313L5.35574 2.82529C5.35215 2.8217 5.34857 2.81812 5.34498 2.81453C5.2949 2.76155 5.24227 2.72292 5.18707 2.69883C5.13409 2.67576 5.07137 2.66397 4.99823 2.66397C4.92559 2.66397 4.86065 2.67627 4.80357 2.70071C4.74103 2.72737 4.68121 2.76907 4.62379 2.82529L4.62345 2.82564L3.19834 4.254L3.19748 4.25503L3.19834 4.25588C3.13989 4.31433 3.09853 4.37244 3.0741 4.4302C3.05034 4.48626 3.03855 4.55171 3.03855 4.62656C3.03855 4.7021 3.05051 4.76875 3.07461 4.82583C3.09939 4.88445 3.13921 4.94119 3.19458 4.99553L3.19817 4.99912L4.25568 6.06006C4.41376 6.21899 4.43136 6.46458 4.30917 6.64282C4.22851 6.76775 4.15075 6.90054 4.07555 7.03999C3.99557 7.18799 3.9238 7.33257 3.85886 7.47441C3.79135 7.62173 3.72795 7.77246 3.66831 7.92576C3.6143 8.06453 3.55944 8.21936 3.50373 8.38821C3.43999 8.58167 3.26003 8.70437 3.06692 8.70437L1.44083 8.70454C1.36256 8.70454 1.29386 8.71668 1.23388 8.74094C1.17475 8.76521 1.12006 8.80212 1.07016 8.8522L1.06828 8.85425C1.0182 8.90432 0.98112 8.95884 0.956853 9.01797C0.932414 9.07796 0.920452 9.14683 0.920452 9.22493V11.2665C0.920452 11.3386 0.931902 11.4029 0.955144 11.4587C0.979753 11.5182 1.01974 11.5765 1.07546 11.6343L1.07597 11.6346C1.12638 11.6852 1.18039 11.7226 1.23747 11.7464C1.29625 11.771 1.36393 11.7833 1.44083 11.7833H2.92986C3.1563 11.7833 3.34446 11.9468 3.38291 12.1623C3.42187 12.3257 3.4622 12.477 3.50442 12.6145C3.55073 12.7653 3.60302 12.9167 3.66232 13.0686C3.71804 13.2134 3.78127 13.3637 3.85168 13.5196C3.92363 13.6791 3.99404 13.8243 4.06239 13.9557C4.15758 14.1379 4.11811 14.355 3.97934 14.4929L3.97968 14.4932L2.82168 15.6478L2.81433 15.655C2.76135 15.7052 2.72273 15.7579 2.69881 15.8129C2.67556 15.8659 2.66394 15.9288 2.66394 16.0019C2.66394 16.0745 2.67625 16.1393 2.70052 16.1964C2.72718 16.2589 2.76887 16.3189 2.82527 16.3762L4.24525 17.8126C4.3008 17.864 4.35873 17.9016 4.4194 17.9254C4.48024 17.9495 4.54928 17.9613 4.62652 17.9613C4.70445 17.9613 4.77469 17.9491 4.83656 17.9247C4.89603 17.9013 4.95191 17.8654 5.00369 17.8168L6.05625 16.7475C6.21501 16.5862 6.46367 16.5669 6.64379 16.6913C6.76838 16.7716 6.90082 16.849 7.03993 16.9241C7.18793 17.0042 7.33251 17.076 7.47435 17.1408C7.62167 17.2084 7.7724 17.2719 7.92569 17.3313C8.06446 17.3852 8.21912 17.4402 8.38814 17.4959C8.5816 17.5596 8.7043 17.7396 8.7043 17.9327L8.70447 19.5593C8.70447 19.6373 8.7166 19.7061 8.74104 19.7661C8.76531 19.8254 8.80222 19.8799 8.8523 19.93L8.85315 19.931L8.854 19.93C8.95432 20.0303 9.07737 20.0797 9.22468 20.0797H11.2659C11.3383 20.0797 11.4024 20.0683 11.4585 20.045C11.5179 20.0204 11.5762 19.9804 11.6336 19.9247L11.6343 19.9242C11.6847 19.8736 11.7222 19.8198 11.7461 19.7627C11.7709 19.7039 11.7832 19.6364 11.7832 19.5595V18.0701C11.7832 17.8438 11.9464 17.6555 12.1621 17.6172C12.3253 17.5783 12.4765 17.5378 12.6143 17.4957C12.7648 17.4494 12.9164 17.3971 13.0682 17.338C13.2131 17.2821 13.3636 17.2189 13.5198 17.1485C13.6788 17.0765 13.8242 17.0063 13.9551 16.9379C14.1376 16.8427 14.3547 16.8824 14.4926 17.021L14.4929 17.0206L15.6475 18.1785L15.6545 18.1858C15.7053 18.2391 15.7579 18.2776 15.8128 18.3015C15.8664 18.3246 15.9312 18.3364 16.0084 18.3364C16.0841 18.3364 16.1499 18.3241 16.2067 18.2996C16.2638 18.2749 16.3169 18.2367 16.3653 18.1856C16.3706 18.1798 16.3762 18.1742 16.3824 18.1686L17.8126 16.7549C17.8637 16.6995 17.9015 16.6414 17.9251 16.5807C17.9491 16.5199 17.9611 16.4507 17.9611 16.3734C17.9611 16.2955 17.9491 16.2253 17.9247 16.1634C17.901 16.1039 17.8652 16.0482 17.8165 15.9964L16.7474 14.9437C16.5859 14.7849 16.5668 14.5365 16.691 14.3562C16.7715 14.2316 16.8489 14.0991 16.9239 13.9602C17.0041 13.8124 17.0759 13.6676 17.1406 13.5258C17.2081 13.3784 17.2715 13.2277 17.3312 13.0744C17.3848 12.9356 17.44 12.7808 17.4958 12.6118C17.5595 12.4183 17.7395 12.2956 17.9327 12.2956L19.559 12.2955C19.6371 12.2955 19.7061 12.2833 19.766 12.2589C19.8251 12.2346 19.8798 12.1977 19.9298 12.1478L19.9316 12.1459C19.9816 12.0957 20.0191 12.0412 20.043 11.9819C20.0674 11.922 20.0794 11.8532 20.0794 11.7751V9.73352C20.0794 9.6614 20.0681 9.59714 20.0447 9.54109C20.0202 9.48179 19.9803 9.42334 19.9245 9.36558L19.9239 9.36506C19.8734 9.31448 19.8194 9.27722 19.7624 9.2533C19.7039 9.22869 19.6362 9.21638 19.5592 9.21638H18.0701C17.8408 9.21638 17.6509 9.04907 17.6159 8.82981C17.5798 8.68574 17.5392 8.53963 17.493 8.39128C17.4486 8.24893 17.3966 8.09836 17.3358 7.93926C17.3327 7.93157 17.3302 7.92371 17.3278 7.91585C17.27 7.7646 17.2109 7.62241 17.1502 7.48928C17.0844 7.34522 17.0147 7.20593 16.9409 7.07127C16.8421 6.8896 16.8788 6.67051 17.0166 6.53037V6.5302L18.1744 5.35544C18.178 5.35186 18.1814 5.34827 18.1852 5.34468C18.2383 5.2946 18.2769 5.24197 18.301 5.18694C18.3241 5.13396 18.3361 5.07124 18.3361 4.9981C18.3361 4.92546 18.3238 4.86052 18.2993 4.80344C18.2727 4.74089 18.231 4.68108 18.1746 4.62366L18.1742 4.62332L16.7457 3.19819L16.744 3.19666ZM16.9255 2.2292C17.0967 2.30149 17.2522 2.40728 17.3924 2.54741L17.3927 2.54758L18.825 3.97664L18.8286 3.98023C18.9665 4.12036 19.0719 4.27468 19.1441 4.44387C19.2186 4.61836 19.2562 4.8031 19.2562 4.9981C19.2562 5.196 19.2177 5.38091 19.142 5.55369C19.0682 5.72322 18.9603 5.87395 18.8209 6.00708L17.9037 6.93762C17.9307 6.99385 17.9577 7.05076 17.9838 7.10835C18.0573 7.26865 18.1247 7.4293 18.1858 7.59011C18.1893 7.59729 18.1922 7.60464 18.1949 7.61216C18.2559 7.77229 18.3144 7.94251 18.3701 8.12161C18.388 8.17937 18.4054 8.23748 18.4222 8.29609H19.559C19.7566 8.29609 19.9415 8.33232 20.1148 8.40479C20.285 8.47605 20.4388 8.58115 20.576 8.71941L20.5857 8.72915C20.7209 8.86895 20.8235 9.0231 20.8932 9.19229C20.9646 9.36438 21 9.54468 21 9.73352V11.7749C21 11.9713 20.9653 12.1552 20.8952 12.3269C20.8252 12.4983 20.7208 12.654 20.5811 12.794L20.5804 12.7945L20.5794 12.7957L20.5787 12.7964C20.4386 12.936 20.2831 13.0407 20.1112 13.1108C19.9392 13.1807 19.7554 13.2156 19.5592 13.2156H18.2588C18.2361 13.2768 18.2125 13.34 18.187 13.4046C18.1219 13.5719 18.0515 13.7392 17.9751 13.9063C17.896 14.0791 17.8155 14.2423 17.7335 14.3946C17.7065 14.4445 17.6788 14.4942 17.6504 14.544L18.4622 15.3431C18.4682 15.3487 18.4738 15.3544 18.48 15.3605C18.6131 15.5013 18.7132 15.6577 18.7807 15.8286C18.8484 16.0002 18.8819 16.182 18.8819 16.3731C18.8819 16.5635 18.8486 16.7438 18.7814 16.9147C18.7143 17.0851 18.6151 17.2407 18.4834 17.3819C18.4788 17.3867 18.474 17.3917 18.469 17.3964L17.0284 18.8205C16.8932 18.9622 16.7409 19.0706 16.57 19.144C16.3974 19.2186 16.2108 19.2563 16.009 19.2563C15.8114 19.2563 15.6251 19.2177 15.4501 19.1423C15.2768 19.0673 15.1237 18.9588 14.9902 18.818L14.077 17.9023C14.016 17.9317 13.9561 17.9595 13.898 17.9859C13.7425 18.0559 13.5762 18.1251 13.3997 18.1933C13.2338 18.2579 13.0606 18.3176 12.881 18.3726C12.8212 18.3909 12.7622 18.4083 12.7041 18.4249V19.5593C12.7041 19.7567 12.6677 19.9418 12.5953 20.1149C12.5238 20.2853 12.4191 20.4389 12.2805 20.5763L12.2708 20.5863C12.131 20.7211 11.9766 20.8235 11.8078 20.8935C11.6355 20.9648 11.4552 21.0002 11.2664 21.0002H9.22485C8.82341 21.0002 8.48435 20.8617 8.2034 20.5808L8.20426 20.5799C8.06412 20.4396 7.95902 20.2836 7.88895 20.1115C7.81888 19.9396 7.78402 19.7559 7.78402 19.5595V18.2591C7.72267 18.2364 7.65961 18.2126 7.59484 18.1874C7.4277 18.1222 7.26039 18.0518 7.09325 17.9753C6.92048 17.8963 6.75727 17.8157 6.60483 17.7334C6.5551 17.7066 6.50537 17.6789 6.45564 17.6506L5.65652 18.4623C5.65088 18.4683 5.64507 18.4741 5.63909 18.4799C5.49827 18.6134 5.3419 18.7136 5.171 18.7809C4.99942 18.8486 4.81759 18.8822 4.62652 18.8822C4.43615 18.8822 4.25568 18.8489 4.08495 18.7816C3.91457 18.7144 3.75905 18.6153 3.61772 18.4837L3.61789 18.4834C3.61293 18.4789 3.60798 18.4741 3.60336 18.4692L2.17108 17.0203C2.03333 16.8802 1.92789 16.7257 1.85577 16.5565C1.78143 16.3818 1.74366 16.1972 1.74366 16.0024C1.74366 15.8045 1.78211 15.6196 1.85765 15.4467C1.93233 15.2759 2.04068 15.1243 2.18184 14.9904L3.09768 14.0771C3.06829 14.0161 3.04026 13.9563 3.01394 13.8976C2.9437 13.7423 2.87466 13.5763 2.80664 13.4C2.74204 13.234 2.68223 13.0609 2.6272 12.8811C2.60891 12.8211 2.59148 12.7624 2.57491 12.7042H1.44083C1.24328 12.7042 1.05819 12.6678 0.885247 12.5954C0.714691 12.5241 0.561055 12.4192 0.423825 12.2808L0.413913 12.2705C0.278904 12.1309 0.176537 11.9766 0.10664 11.8075C0.0353757 11.6353 0 11.455 0 11.2665V9.22493C0 9.02857 0.034863 8.84468 0.104931 8.67293C0.174999 8.50117 0.279417 8.34548 0.41921 8.20552L0.419381 8.20535L0.420407 8.20449L0.421261 8.20364C0.561397 8.06384 0.716913 7.95925 0.888836 7.88918C1.06059 7.81912 1.24447 7.78442 1.44083 7.78442H2.74119C2.76375 7.72307 2.78767 7.66001 2.81297 7.59524C2.87791 7.4281 2.94849 7.26079 3.02505 7.09348C3.104 6.9207 3.1845 6.7575 3.26687 6.60523C3.29421 6.55447 3.32258 6.50371 3.35163 6.45295L2.55166 5.65042L2.55132 5.65024C2.40999 5.5113 2.30301 5.35493 2.23004 5.18215C2.15535 5.00579 2.11844 4.82019 2.11844 4.6269C2.11844 4.43396 2.15518 4.25007 2.22935 4.07456C2.30284 3.90076 2.40879 3.74439 2.54773 3.60544L2.54859 3.6063L3.9766 2.17485L3.98019 2.17126C4.12033 2.03352 4.27465 1.92808 4.44384 1.85596C4.61849 1.78162 4.80306 1.74368 4.99806 1.74368C5.19578 1.74368 5.38069 1.78213 5.55364 1.85767C5.72317 1.93167 5.8739 2.03933 6.00703 2.17896L6.93688 3.09531C6.99277 3.06763 7.04848 3.04114 7.10402 3.0155C7.24706 2.94954 7.40497 2.88306 7.57775 2.81606C7.58509 2.81265 7.59261 2.80957 7.60013 2.80667C7.76607 2.74207 7.93936 2.68225 8.11915 2.62722C8.17896 2.60894 8.23792 2.5915 8.29603 2.57493V1.44067C8.29603 1.24329 8.33243 1.0582 8.40489 0.885254C8.47615 0.714697 8.58125 0.56106 8.71951 0.423657L8.72925 0.413916C8.86904 0.278906 9.02319 0.176709 9.19221 0.106812C9.36447 0.035376 9.54477 0 9.73361 0H11.7748C11.971 0 12.1551 0.0346924 12.3268 0.104761C12.4994 0.175171 12.6556 0.280273 12.7964 0.420923C12.9355 0.560376 13.0405 0.716235 13.1109 0.888672C13.1809 1.06042 13.2156 1.24431 13.2156 1.4405V2.74104C13.277 2.76377 13.3399 2.7877 13.4048 2.81282C13.5718 2.87776 13.7389 2.94834 13.9062 3.02473C14.0792 3.10369 14.2424 3.18435 14.3945 3.26672C14.4456 3.29424 14.4963 3.32244 14.5471 3.35149L15.3495 2.55151L15.3498 2.55134C15.4887 2.41001 15.6453 2.30303 15.8177 2.23005C15.9943 2.15537 16.1795 2.11846 16.3728 2.11846C16.5661 2.11846 16.75 2.15503 16.9255 2.2292ZM10.4999 6.04058C10.8043 6.04058 11.1013 6.06963 11.391 6.12739C11.6757 6.1843 11.958 6.27163 12.2374 6.38955L12.2405 6.39092L12.2412 6.38955C12.508 6.50474 12.7609 6.64231 13.0001 6.80261C13.2372 6.96138 13.4568 7.14065 13.6581 7.34009L13.6598 7.34197C13.8594 7.54346 14.0387 7.76289 14.1974 8.0001C14.3577 8.23936 14.4951 8.49229 14.6103 8.75906C14.6156 8.7717 14.6204 8.78435 14.6247 8.79717C14.7351 9.06531 14.818 9.33584 14.8723 9.60911C14.9304 9.89895 14.9591 10.1958 14.9591 10.5C14.9591 10.8044 14.9304 11.1014 14.8723 11.3911C14.8156 11.676 14.7281 11.9579 14.6103 12.2375L14.609 12.2406L14.6103 12.2413C14.4951 12.5081 14.3576 12.7608 14.1974 13.0001C14.0385 13.2373 13.8592 13.4567 13.6598 13.6582L13.6581 13.6601C13.4564 13.8597 13.2372 14.039 12.9998 14.1977C12.7609 14.358 12.5078 14.4954 12.2412 14.6106C12.2285 14.6159 12.2159 14.6209 12.2027 14.625C11.9348 14.7355 11.6641 14.8183 11.391 14.8728C11.1013 14.9307 10.8041 14.9596 10.4999 14.9596C10.1955 14.9596 9.8987 14.9307 9.60903 14.8728C9.32414 14.8159 9.04199 14.7284 8.7624 14.6106L8.75933 14.6093L8.75882 14.6106C8.49205 14.4954 8.23895 14.3579 7.99986 14.1977C7.76266 14.039 7.54322 13.8597 7.34191 13.6601L7.3402 13.6582C7.14059 13.4565 6.96115 13.2373 6.80256 12.9999C6.64243 12.7608 6.50485 12.5077 6.38984 12.2413C6.38437 12.2286 6.37959 12.216 6.37531 12.203C6.26474 11.9349 6.18203 11.6643 6.12751 11.3911C6.06975 11.1014 6.0407 10.8044 6.0407 10.5C6.0407 10.1956 6.06958 9.89878 6.12751 9.60911C6.18442 9.32422 6.27192 9.04207 6.38984 8.76265L6.39104 8.75957L6.38984 8.75906C6.50485 8.49229 6.6426 8.23936 6.80256 8.00027C6.96132 7.76289 7.14059 7.54363 7.3402 7.34197L7.34208 7.34026C7.5434 7.14082 7.76283 6.96155 7.99986 6.80278C8.23912 6.64265 8.49222 6.50491 8.75899 6.38972C8.77163 6.38425 8.78428 6.37947 8.79727 6.37537C9.0654 6.2648 9.33576 6.18225 9.60903 6.12773C9.8987 6.06963 10.1955 6.04058 10.4999 6.04058ZM11.2112 7.02974C10.9815 6.98377 10.7446 6.96086 10.4999 6.96086C10.2554 6.96086 10.0185 6.98377 9.78864 7.02974C9.56545 7.07434 9.35234 7.13826 9.14931 7.22149C9.14043 7.22593 9.13137 7.23037 9.12197 7.2343C8.90015 7.33018 8.6961 7.44024 8.51016 7.56465C8.32286 7.68992 8.14957 7.83176 7.98995 7.98967C7.83187 8.14946 7.69003 8.3231 7.56459 8.51057C7.44017 8.69634 7.33012 8.90022 7.23441 9.12205L7.23322 9.12153C7.14418 9.33294 7.0765 9.55544 7.02968 9.78889C6.98388 10.0186 6.96098 10.2554 6.96098 10.5C6.96098 10.7446 6.98388 10.9814 7.02968 11.2113C7.07428 11.4345 7.13837 11.6476 7.2216 11.8506C7.22604 11.8597 7.23048 11.8686 7.23441 11.878C7.33012 12.0998 7.44017 12.3035 7.56442 12.4893C7.68985 12.6767 7.8317 12.8504 7.98995 13.0102C8.14957 13.1682 8.32303 13.3099 8.51033 13.4352C8.6961 13.5596 8.89998 13.6697 9.12197 13.7655L9.12146 13.7667C9.33303 13.8558 9.55537 13.9236 9.78881 13.9701C10.0185 14.0161 10.2555 14.0388 10.5001 14.0388C10.7446 14.0388 10.9817 14.0159 11.2114 13.9701C11.4347 13.9255 11.6477 13.8616 11.8509 13.7783C11.8596 13.7739 11.8688 13.7695 11.8782 13.7655C12.0999 13.6697 12.3037 13.5596 12.4897 13.4352C12.677 13.3099 12.8504 13.1681 13.0101 13.0102C13.1683 12.8504 13.3101 12.6769 13.4356 12.4894C13.5598 12.3037 13.6699 12.0998 13.7654 11.878L13.7668 11.8785C13.8558 11.6671 13.9237 11.4446 13.9703 11.2113C14.0161 10.9814 14.039 10.7446 14.039 10.5C14.039 10.2554 14.016 10.0186 13.9703 9.78889C13.9255 9.56553 13.8618 9.35259 13.7784 9.14939C13.7738 9.1405 13.7697 9.13145 13.7654 9.12205C13.6699 8.90022 13.5598 8.69634 13.4352 8.51057C13.3101 8.3231 13.1681 8.14946 13.0101 7.98984C12.8504 7.83193 12.677 7.69009 12.4897 7.56482C12.3037 7.44041 12.0999 7.33035 11.8782 7.23447L11.8785 7.23328C11.6671 7.14424 11.4448 7.07639 11.2112 7.02974Z" fill="#475569"/>
</g>
<defs>
<clipPath id="clip0_44_360">
<rect width="21" height="21" fill="white"/>
</clipPath>
</defs>
</svg>
