<svg width="54" height="53" viewBox="0 0 54 53" fill="none" xmlns="http://www.w3.org/2000/svg">
<g clip-path="url(#clip0_25_62)">
<path d="M11.3084 33.18L8.82141 39.0195C8.76337 39.1568 8.66716 39.2743 8.54428 39.3582C8.42141 39.442 8.27705 39.4886 8.12848 39.4924L1.87207 40.0563L6.64137 44.2328C6.86285 44.4274 6.94723 44.7215 6.88606 44.9913L5.477 51.182L10.9097 47.9237C11.1628 47.7714 11.4687 47.782 11.7049 47.9237L17.1397 51.182L16.5206 48.4675C17.0353 48.5257 17.5658 48.4876 18.0816 48.3458L18.7861 51.4465C18.8061 51.5808 18.8061 51.7194 18.784 51.858C18.757 52.025 18.699 52.1853 18.6131 52.3309C18.4329 52.633 18.1404 52.8511 17.8 52.937C17.473 53.0196 17.1144 52.9762 16.7991 52.7879L11.3073 49.4947L5.86301 52.7614C5.74489 52.8397 5.612 52.8979 5.46961 52.9339L5.37047 52.9582C5.21754 52.9857 5.05512 52.9857 4.89059 52.954L4.83785 52.9445C4.48559 52.8619 4.19661 52.643 4.01731 52.3563C3.83495 52.0655 3.77183 51.7152 3.84118 51.3788L5.27239 45.096L0.454574 40.8761C0.326614 40.764 0.221344 40.6282 0.144495 40.4762C0.0735512 40.3373 0.0274997 40.1869 0.00844076 40.0319L0.00316733 39.9632C-0.0200358 39.613 0.0991439 39.2808 0.313245 39.0248C0.525238 38.772 0.830042 38.5964 1.17809 38.5572L7.57688 37.9849L10.0849 32.0914C10.1503 31.9359 10.2473 31.7899 10.3697 31.6662C10.4688 31.5657 10.5848 31.48 10.7177 31.4133C10.7641 31.3879 10.8137 31.3668 10.8654 31.3499C11.1776 31.2377 11.5109 31.2536 11.8009 31.37C12.0909 31.4874 12.3409 31.7074 12.4907 32.0058L14.4756 36.6615L13.8987 39.193C13.8565 39.1401 13.8227 39.0819 13.7964 39.0195L11.3084 33.18ZM25.7776 1.21074C25.7776 0.554856 26.3081 0.0216827 26.9631 0.0216827C27.617 0.0216827 28.1486 0.554856 28.1486 1.21074V6.58056C28.1486 7.23645 27.617 7.76963 26.9631 7.76963C26.3081 7.76963 25.7776 7.23645 25.7776 6.58056V1.21074ZM4.31789 16.0782C3.71672 15.8244 3.43407 15.1304 3.68719 14.5274C3.94032 13.9244 4.63325 13.6409 5.23442 13.8948L10.163 15.9894C10.7641 16.2433 11.0468 16.9383 10.7937 17.5402C10.5406 18.1432 9.84762 18.4268 9.24645 18.1729L4.31789 16.0782ZM9.32977 8.37262C8.86993 7.90821 8.87204 7.15711 9.33504 6.69587C9.79805 6.23464 10.5469 6.23675 11.0067 6.70116L14.772 10.518C15.2318 10.9824 15.2297 11.7335 14.7667 12.1948C14.3037 12.656 13.5548 12.6539 13.095 12.1895L9.32977 8.37262ZM16.8866 3.15302C16.6388 2.54791 16.9267 1.855 17.53 1.60639C18.1343 1.35779 18.8241 1.64659 19.073 2.2517L21.1085 7.21847C21.3564 7.82358 21.0674 8.51649 20.4641 8.7651C19.8608 9.0137 19.17 8.7249 18.9222 8.11979L16.8866 3.15302ZM48.7656 13.8948C49.3668 13.6409 50.0597 13.9244 50.3128 14.5274C50.5659 15.1304 50.2833 15.8244 49.6821 16.0782L44.7536 18.1729C44.1524 18.4268 43.4595 18.1432 43.2063 17.5402C42.9532 16.9383 43.2359 16.2433 43.837 15.9894L48.7656 13.8948ZM42.9933 6.70116C43.4531 6.23675 44.202 6.23464 44.665 6.69587C45.128 7.15711 45.1301 7.90821 44.6702 8.37262L40.905 12.1895C40.4452 12.6539 39.6963 12.656 39.2333 12.1948C38.7703 11.7335 38.7682 10.9824 39.2281 10.518L42.9933 6.70116ZM34.927 2.2517C35.1759 1.64659 35.8657 1.35779 36.47 1.60639C37.0733 1.855 37.3613 2.54791 37.1134 3.15302L35.0779 8.11979C34.83 8.7249 34.1392 9.0137 33.5359 8.7651C32.9326 8.51649 32.6436 7.82358 32.8915 7.21847L34.927 2.2517ZM29.3277 13.9731L32.8609 22.2722L41.7129 23.0687C41.7941 23.0687 41.8743 23.0751 41.9523 23.0857C42.6031 23.1661 43.1694 23.4951 43.566 23.9679L43.6947 24.1446C44.0079 24.591 44.1798 25.138 44.1503 25.7124L44.1292 25.9272C44.0902 26.2117 44.0037 26.4804 43.8803 26.7248L43.7822 26.8941C43.6936 27.0379 43.5913 27.1712 43.4774 27.295C43.3909 27.3976 43.2918 27.4907 43.1831 27.57L36.4795 33.4413L38.5182 42.4037C38.6332 43.0405 38.4961 43.6721 38.1723 44.1883C37.9976 44.4677 37.7695 44.7098 37.5013 44.9006C37.2331 45.0914 36.9299 45.2272 36.6093 45.3002C36.2802 45.3785 35.9427 45.3827 35.6168 45.3245L35.6157 45.3309C35.2793 45.2706 34.9587 45.1415 34.676 44.9564L27 40.3503L19.1943 45.0315C18.6333 45.3551 17.969 45.448 17.3412 45.2907C16.7168 45.133 16.1547 44.7374 15.8003 44.1471L15.7054 43.9662C15.5919 43.7361 15.5144 43.4899 15.4754 43.2363C15.4248 42.9157 15.4364 42.5931 15.506 42.2884L17.5205 33.4413L10.7072 27.4748C10.4584 27.2569 10.255 26.9918 10.1086 26.6948C9.96215 26.3978 9.87562 26.0747 9.85395 25.7441C9.81282 25.1094 10.0143 24.4525 10.4709 23.9288C10.6908 23.6763 10.9587 23.4702 11.2588 23.3226C11.5552 23.1745 11.8842 23.091 12.2207 23.0719L21.1391 22.2722L24.6923 13.9276C24.8214 13.6231 25.0091 13.3472 25.2447 13.1157C25.4804 12.8842 25.7594 12.7018 26.0655 12.5788C27.3502 12.0593 28.793 12.6877 29.3172 13.9466L29.3277 13.9731ZM43.9214 32.1073L46.4231 37.9849L52.8219 38.5572C53.17 38.5964 53.4748 38.772 53.6868 39.0248C53.9009 39.2808 54.02 39.613 53.9968 39.9632L53.9916 40.0319C53.9725 40.1869 53.9265 40.3373 53.8555 40.4762C53.7796 40.6275 53.673 40.764 53.5454 40.8761L48.7276 45.096L50.1588 51.3788C50.2305 51.7268 50.1588 52.0749 49.9827 52.3563C49.8034 52.643 49.5144 52.8619 49.1622 52.9445L49.1094 52.954C48.9449 52.9857 48.7825 52.9857 48.6295 52.9582L48.5304 52.9339C48.388 52.8979 48.2551 52.8397 48.137 52.7614L42.6916 49.4947L37.2009 52.7879C37.0521 52.8776 36.8871 52.9369 36.7153 52.9625C36.5436 52.9881 36.3685 52.9795 36.2 52.937C35.8731 52.8545 35.5746 52.6451 35.3869 52.3309C35.2983 52.1817 35.2413 52.0209 35.215 51.8601L35.2139 51.8517C35.1918 51.7194 35.1928 51.583 35.2139 51.4486L35.9195 48.3427C36.0345 48.3744 36.1526 48.4008 36.2707 48.422C36.6662 48.4939 37.0744 48.5109 37.4794 48.4654L36.8603 51.182L42.294 47.9237C42.5313 47.782 42.8361 47.7714 43.0893 47.9237L48.523 51.182L47.1129 44.9913C47.0528 44.7215 47.1371 44.4274 47.3586 44.2328L52.1279 40.0563L45.8715 39.4924C45.7229 39.4886 45.5786 39.442 45.4557 39.3582C45.3328 39.2743 45.2366 39.1568 45.1786 39.0195L42.6916 33.18L40.2057 39.0195C40.1783 39.0841 40.1414 39.1444 40.0982 39.1983L39.5223 36.6689L41.5093 32.0058C41.6591 31.7074 41.9091 31.4874 42.1991 31.37C42.4891 31.2536 42.8224 31.2377 43.1346 31.3499C43.1863 31.3668 43.2359 31.3879 43.2823 31.4133C43.4152 31.48 43.5312 31.5657 43.6303 31.6662C43.7527 31.7899 43.8497 31.9359 43.9151 32.0914L43.9214 32.1073Z" fill="#FFE29A"/>
<path d="M27.7425 14.6014L31.6923 23.8791L41.7129 24.7804C42.1548 24.8195 42.4817 25.2099 42.4438 25.6532C42.4261 25.8604 42.3289 26.0527 42.1727 26.1895V26.1906L34.5927 32.8288L36.8349 42.6692C36.9341 43.104 36.663 43.5367 36.2296 43.6372C36.0081 43.6869 35.7866 43.6414 35.6094 43.525L27 38.3626L18.3631 43.542C18.2724 43.5963 18.1719 43.6322 18.0674 43.6476C17.9629 43.6629 17.8563 43.6575 17.7539 43.6316C17.6514 43.6056 17.5551 43.5597 17.4703 43.4964C17.3856 43.4331 17.3141 43.3537 17.2599 43.2627C17.1534 43.0845 17.1197 42.8718 17.1661 42.6692H17.165L19.4073 32.8288L11.8273 26.1906C11.4929 25.8975 11.4592 25.3876 11.7513 25.0523C11.822 24.9713 11.9082 24.9053 12.0047 24.8582C12.1013 24.8112 12.2063 24.784 12.3135 24.7783L22.3066 23.8791L26.2596 14.5961C26.4336 14.1857 26.9061 13.9953 27.3153 14.1698C27.5168 14.2555 27.6644 14.4142 27.7425 14.6014Z" fill="#F0B621"/>
</g>
<defs>
<clipPath id="clip0_25_62">
<rect width="54" height="53" fill="white"/>
</clipPath>
</defs>
</svg>
