<svg width="30" height="30" viewBox="0 0 30 30" fill="none" xmlns="http://www.w3.org/2000/svg">
<g clip-path="url(#clip0_44_318)">
<path d="M14.0026 20.1733C13.6354 20.1733 13.3395 19.8757 13.3395 19.5107C13.3395 19.1457 13.6373 18.8481 14.0026 18.8481H17.7207C18.0879 18.8481 18.3838 19.1457 18.3838 19.5107C18.3838 19.8757 18.086 20.1733 17.7207 20.1733H14.0026ZM8.3513 19.5163C8.20145 19.2917 8.26139 18.9884 8.48616 18.8368C8.71094 18.6871 9.01439 18.747 9.16611 18.9716L9.4321 19.3684L10.4904 18.0806C10.6628 17.8729 10.9699 17.8429 11.1797 18.0133C11.3877 18.1855 11.4176 18.4924 11.2472 18.7021L9.78238 20.4821C9.75053 20.5233 9.7112 20.5607 9.66624 20.5907C9.44146 20.7404 9.13802 20.6805 8.98629 20.4559L8.3513 19.5163ZM8.3513 14.8556C8.20145 14.631 8.26139 14.3278 8.48616 14.1762C8.71094 14.0264 9.01439 14.0863 9.16611 14.311L9.4321 14.7078L10.4904 13.42C10.6628 13.2122 10.9699 13.1823 11.1797 13.3526C11.3877 13.5248 11.4176 13.8318 11.2472 14.0414L9.78238 15.8215C9.75053 15.8626 9.7112 15.9001 9.66624 15.93C9.44146 16.0798 9.13802 16.0199 8.98629 15.7952L8.3513 14.8556ZM8.3513 10.1931C8.20145 9.96851 8.26139 9.66528 8.48616 9.51367C8.71094 9.36393 9.01439 9.42383 9.16611 9.64844L9.4321 10.0452L10.4904 8.75749C10.6628 8.54972 10.9699 8.51978 11.1797 8.6901C11.3877 8.8623 11.4176 9.16927 11.2472 9.37891L9.78238 11.1589C9.75053 11.2001 9.7112 11.2375 9.66624 11.2675C9.44146 11.4172 9.13802 11.3573 8.98629 11.1327L8.3513 10.1931ZM14.0026 10.3054C13.6354 10.3054 13.3395 10.0078 13.3395 9.64282C13.3395 9.27783 13.6373 8.98023 14.0026 8.98023H20.8002C21.1673 8.98023 21.4633 9.27783 21.4633 9.64282C21.4633 10.0078 21.1654 10.3054 20.8002 10.3054H14.0026ZM5.53972 3H24.4622C24.8874 3 25.2732 3.1722 25.5504 3.44922C25.8277 3.72624 26 4.11182 26 4.5367V24.4596C26 24.8844 25.8277 25.27 25.5504 25.547C25.2732 25.8241 24.8874 25.9963 24.4622 25.9963H5.53972C5.11452 25.9963 4.72865 25.8241 4.45143 25.547C4.17233 25.2738 4 24.8863 4 24.4614V4.53857C4 4.11369 4.17233 3.72624 4.44955 3.44922C4.72678 3.1722 5.11452 3 5.53972 3ZM24.4622 4.3252H5.53972C5.47978 4.3252 5.42546 4.34953 5.38612 4.38883C5.34679 4.42814 5.32244 4.48242 5.32244 4.54232V24.4652C5.32244 24.5251 5.34679 24.5793 5.38612 24.6187C5.42546 24.658 5.47978 24.6823 5.53972 24.6823H24.4622C24.5221 24.6823 24.5764 24.658 24.6158 24.6187C24.6551 24.5793 24.6794 24.5251 24.6794 24.4652V4.54232C24.6794 4.48242 24.6551 4.42814 24.6158 4.38883C24.5745 4.34953 24.5202 4.3252 24.4622 4.3252ZM14.0026 15.2393C13.6354 15.2393 13.3395 14.9417 13.3395 14.5767C13.3395 14.2118 13.6373 13.9141 14.0026 13.9141H20.8002C21.1673 13.9141 21.4633 14.2118 21.4633 14.5767C21.4633 14.9417 21.1654 15.2393 20.8002 15.2393H14.0026Z" fill="#475569"/>
</g>
<defs>
<clipPath id="clip0_44_318">
<rect width="22" height="23" fill="white" transform="translate(4 3)"/>
</clipPath>
</defs>
</svg>
