<svg id="SvgjsSvg1048" width="288" height="288" xmlns="http://www.w3.org/2000/svg" version="1.1" xmlns:xlink="http://www.w3.org/1999/xlink" xmlns:svgjs="http://svgjs.com/svgjs"><defs id="SvgjsDefs1049"></defs><g id="SvgjsG1050"><svg xmlns="http://www.w3.org/2000/svg" enable-background="new 0 0 32 32" viewBox="0 0 32 32" width="288" height="288"><line x1="16.975" x2="22.283" y1="10.583" y2="10.583" fill="none" stroke="#475569" stroke-linecap="round" stroke-linejoin="round" stroke-miterlimit="10" stroke-width="2" class="colorStroke000 svgStroke"></line><line x1="12.043" x2="13.652" y1="10.583" y2="10.583" fill="none" stroke="#475569" stroke-linecap="round" stroke-linejoin="round" stroke-miterlimit="10" stroke-width="2" class="colorStroke000 svgStroke"></line><line x1="16.975" x2="22.283" y1="18.164" y2="18.164" fill="none" stroke="#475569" stroke-linecap="round" stroke-linejoin="round" stroke-miterlimit="10" stroke-width="2" class="colorStroke000 svgStroke"></line><line x1="12.043" x2="13.652" y1="18.164" y2="18.164" fill="none" stroke="#475569" stroke-linecap="round" stroke-linejoin="round" stroke-miterlimit="10" stroke-width="2" class="colorStroke000 svgStroke"></line><line x1="4.873" x2="29.444" y1="2.209" y2="2.209" fill="none" stroke="#475569" stroke-linecap="round" stroke-linejoin="round" stroke-miterlimit="10" stroke-width="2" class="colorStroke000 svgStroke"></line><path fill="none" stroke="#475569" stroke-linecap="round" stroke-linejoin="round" stroke-miterlimit="10" stroke-width="2" d="M25.1495,26.6624l-1.1619,1.4923c-0.535,0.6871-1.5181,0.6863-2.0521-0.0016l-0.8545-1.1007
			c-0.5349-0.6889-1.5197-0.6885-2.0541,0.0009l-0.8488,1.0951c-0.5347,0.6898-1.5203,0.6897-2.0548-0.0001l-0.8472-1.0933
			c-0.5347-0.69-1.5204-0.6899-2.055,0.0001l-0.8459,1.0917c-0.5349,0.6904-1.5214,0.6899-2.0557-0.001l-1.1488-1.4855
			c-0.4635-0.5993-0.7172-1.3541-0.7172-2.1334V2.2052h17.42v22.3152C25.8734,25.3036,25.6172,26.0618,25.1495,26.6624z" class="colorStroke000 svgStroke"></path></svg></g></svg>