<svg width="39" height="26" viewBox="0 0 39 26" fill="none" xmlns="http://www.w3.org/2000/svg">
<g clip-path="url(#clip0_57_49)">
<path d="M30.3831 3.35474C33.7251 5.55503 36.6038 8.74529 38.7874 12.6214L39 13L38.7874 13.3755C36.6038 17.2516 33.7219 20.4419 30.3831 22.6422C27.1235 24.7897 23.4229 26 19.5 26C15.5771 26 11.8765 24.7897 8.62012 22.6453C5.2749 20.4419 2.39624 17.2516 0.212646 13.3755L0 13L0.212646 12.6214C2.39624 8.74529 5.2749 5.55503 8.61694 3.35474C11.8765 1.21031 15.5771 0 19.5 0C23.4229 0 27.1204 1.21031 30.3831 3.35474ZM19.2937 6.88016L20.5886 7.00119C20.1284 7.67773 19.8555 8.49702 19.8555 9.38147C19.8555 11.7028 21.7153 13.5834 24.0132 13.5834C24.7495 13.5834 25.4414 13.391 26.0413 13.0497C26.0508 13.1955 26.0571 13.3414 26.0571 13.4903C26.0571 17.143 23.0293 20.1036 19.2937 20.1036C15.5581 20.1036 12.5303 17.143 12.5303 13.4903C12.5303 9.84077 15.5581 6.88016 19.2937 6.88016ZM34.5947 13C32.8491 10.0021 30.5925 7.53808 27.9963 5.82812C25.4414 4.1461 22.5532 3.19647 19.5 3.19647C16.45 3.19647 13.5618 4.1461 11.0068 5.82812C8.41064 7.53808 6.15405 10.0021 4.40527 13C6.15088 15.9979 8.41064 18.4619 11.0068 20.1688C13.5618 21.8508 16.45 22.8004 19.5 22.8004C22.5532 22.8004 25.4382 21.8508 27.9963 20.1688C30.5925 18.4619 32.8491 15.9979 34.5947 13Z" fill="#0E7AEE"/>
</g>
<defs>
<clipPath id="clip0_57_49">
<rect width="39" height="26" fill="white"/>
</clipPath>
</defs>
</svg>
